<?xml version="1.0" encoding="UTF-8" standalone="no"?>
<!DOCTYPE svg PUBLIC "-//W3C//DTD SVG 1.1//EN" "http://www.w3.org/Graphics/SVG/1.1/DTD/svg11.dtd">
<svg width="100%" height="100%" viewBox="0 0 984 402" version="1.1" xmlns="http://www.w3.org/2000/svg" xmlns:xlink="http://www.w3.org/1999/xlink" xml:space="preserve" xmlns:serif="http://www.serif.com/" style="fill-rule:evenodd;clip-rule:evenodd;stroke-linejoin:round;stroke-miterlimit:2;">
    <g id="Artboard1" transform="matrix(1,0,0,1,-209.196,-235.436)">
        <rect x="209.196" y="235.436" width="983.217" height="401.243" style="fill:none;"/>
        <g transform="matrix(1,0,0,1,0.195576,0.436266)">
            <g>
                <path d="M336.52,462.7C336.52,466.76 336.96,469.67 337.86,471.43C338.75,473.19 340.18,474.69 342.14,475.93C344.64,477.34 346.78,478.14 348.57,478.31C350.35,478.49 352.14,479.19 353.93,480.43C354.82,481.14 355.36,482.02 355.54,483.07C355.72,484.13 355.63,484.83 355.27,485.19C355.09,485.54 353.84,485.67 351.52,485.59C349.2,485.5 346.16,485.33 342.41,485.06C338.66,484.8 334.33,484.53 329.42,484.27C324.51,484.01 319.38,483.87 314.02,483.87C308.66,483.87 303.53,484 298.62,484.27C293.71,484.53 289.38,484.8 285.63,485.06C281.88,485.32 278.84,485.5 276.52,485.59C274.2,485.68 272.86,485.54 272.5,485.19C272.14,484.84 272.05,484.13 272.23,483.07C272.41,482.01 272.94,481.13 273.84,480.43C275.45,479.37 277.28,478.76 279.33,478.58C281.38,478.41 283.75,477.52 286.43,475.94C288.21,474.71 289.6,473.21 290.58,471.44C291.56,469.68 292.05,466.77 292.05,462.71L292.05,322.54C292.23,318.49 291.82,315.58 290.84,313.81C289.86,312.05 288.38,310.55 286.42,309.31C283.92,307.72 281.73,306.84 279.86,306.67C277.99,306.5 276.24,305.88 274.64,304.82C273.74,304.12 273.21,303.23 273.03,302.18C272.85,301.12 272.94,300.42 273.3,300.06C273.84,299.36 277.58,299.4 284.55,300.19C291.52,300.98 300.44,301.38 311.33,301.38C316.69,301.38 321.73,301.29 326.46,301.12C331.19,300.95 335.88,300.81 340.52,300.72C345.16,300.63 349.89,300.5 354.71,300.32C359.53,300.15 364.71,300.06 370.24,300.06C381.49,300.06 391.13,301.56 399.16,304.56C407.19,307.56 413.76,311.53 418.84,316.46C423.93,321.4 427.68,326.91 430.09,332.99C432.5,339.07 433.71,345.29 433.71,351.63C433.71,360.8 431.84,369.17 428.09,376.75C424.34,384.33 419.25,390.86 412.82,396.32C406.39,401.79 398.85,406.02 390.19,409.01C381.53,412.01 372.2,413.51 362.2,413.51C357.74,413.51 353.32,413.07 348.94,412.19C344.56,411.31 340.41,410.17 336.49,408.75L336.49,462.7L336.52,462.7ZM336.52,399.5C339.55,400.91 342.9,402.06 346.56,402.94C350.22,403.82 353.92,404.26 357.67,404.26C361.42,404.26 364.54,403.86 367.58,403.07C370.61,402.28 373.65,400.82 376.69,398.71C379.9,396.42 382.58,393.02 384.72,388.53C386.86,384.03 388.24,378.92 388.87,373.19C389.49,367.46 389.27,361.29 388.2,354.68C387.13,348.07 384.99,341.42 381.77,334.71C378.2,327.31 373.64,321.22 368.11,316.46C362.57,311.7 356.86,309.32 350.97,309.32C346.33,309.32 342.8,310.51 340.39,312.89C337.98,315.27 336.77,319.9 336.77,326.77L336.52,399.5Z" style="fill:rgb(249,249,249);fill-rule:nonzero;"/>
                <path d="M544.07,350.31C547.28,350.31 550.36,350.8 553.31,351.76C556.26,352.73 558.89,354.19 561.21,356.12C563.53,358.06 565.4,360.48 566.83,363.39C568.26,366.3 568.97,369.7 568.97,373.57C568.97,379.39 566.96,384.15 562.94,387.85C558.92,391.55 554.24,393.4 548.88,393.4C543.52,393.4 538.97,391.64 535.22,388.11C531.47,384.59 529.6,380.18 529.6,374.89C529.6,371.37 530.4,368.24 532.01,365.5C533.62,362.77 535.76,360.52 538.44,358.76C534.51,359.29 530.72,360.7 527.06,362.99C523.4,365.28 520,367.93 516.88,370.92C513.75,373.92 510.9,377.23 508.31,380.84C505.72,384.46 503.53,387.85 501.75,391.02L501.75,462.69C501.75,466.75 502.19,469.66 503.09,471.42C503.98,473.18 505.41,474.68 507.37,475.92C509.87,477.51 511.96,478.39 513.66,478.56C515.35,478.74 517.01,479.35 518.61,480.41C519.5,481.12 520.04,482 520.22,483.05C520.4,484.11 520.31,484.81 519.95,485.17C519.77,485.52 518.65,485.65 516.6,485.57C514.55,485.48 511.78,485.31 508.3,485.04C504.82,484.78 500.76,484.51 496.11,484.25C491.47,483.99 486.47,483.85 481.11,483.85C475.75,483.85 470.67,483.98 465.84,484.25C461.02,484.51 456.82,484.78 453.25,485.04C449.68,485.3 446.82,485.48 444.68,485.57C442.54,485.66 441.29,485.52 440.93,485.17C440.57,484.82 440.48,484.11 440.66,483.05C440.84,481.99 441.37,481.11 442.27,480.41C444.05,479.18 445.89,478.47 447.76,478.29C449.63,478.12 451.82,477.32 454.32,475.91C456.28,474.68 457.71,473.18 458.6,471.41C459.49,469.65 459.94,466.74 459.94,462.68L459.94,393.92C459.94,390.22 459.45,387.4 458.47,385.46C457.49,383.52 456.19,382.02 454.59,380.96C452.62,379.55 450.79,378.63 449.1,378.18C447.4,377.74 445.84,376.99 444.41,375.93C443.51,375.4 442.98,374.65 442.8,373.68C442.62,372.71 442.71,371.87 443.07,371.17C448.25,371.17 453.42,370.73 458.6,369.85C463.78,368.97 468.68,367.69 473.33,366.02C477.97,364.35 482.26,362.19 486.18,359.54C490.11,356.9 493.32,353.81 495.82,350.28L501.71,350.28L501.71,378.84C503.85,375.67 506.44,372.41 509.48,369.06C512.51,365.71 515.86,362.63 519.52,359.8C523.18,356.98 527.06,354.69 531.17,352.92C535.32,351.2 539.61,350.31 544.07,350.31Z" style="fill:rgb(249,249,249);fill-rule:nonzero;"/>
                <path d="M570.58,419.07C570.58,409.02 572.32,399.77 575.8,391.3C579.28,382.84 584.1,375.57 590.26,369.48C596.42,363.39 603.78,358.68 612.35,355.33C620.92,351.98 630.29,350.31 640.47,350.31C650.65,350.31 660.33,351.99 668.99,355.33C677.65,358.68 685.06,363.35 691.22,369.35C697.38,375.35 702.15,382.57 705.55,391.03C708.94,399.49 710.64,408.84 710.64,419.06C710.64,429.28 708.9,438.36 705.42,446.83C701.94,455.3 697.12,462.56 690.96,468.65C684.8,474.73 677.39,479.45 668.73,482.8C660.07,486.15 650.65,487.82 640.48,487.82C630.31,487.82 620.66,486.14 612.09,482.8C603.52,479.45 596.16,474.78 590,468.78C583.84,462.79 579.06,455.56 575.67,447.1C572.27,438.64 570.58,429.29 570.58,419.07ZM614.5,421.71C616.46,430.88 618.74,439.21 621.33,446.7C623.92,454.2 626.86,460.54 630.17,465.74C633.47,470.94 637.09,474.82 641.02,477.38C644.95,479.94 649.05,480.86 653.34,480.16C657.09,479.63 660.26,477.61 662.85,474.08C665.44,470.56 667.31,465.93 668.47,460.2C669.63,454.47 670.12,447.82 669.94,440.23C669.76,432.65 668.87,424.54 667.26,415.9C665.65,406.74 663.51,398.41 660.83,390.91C658.15,383.42 655.11,377.12 651.72,372C648.33,366.89 644.62,363.05 640.61,360.5C636.59,357.95 632.53,357.02 628.42,357.72C624.67,358.25 621.5,360.28 618.91,363.8C616.32,367.33 614.4,371.91 613.15,377.55C611.9,383.19 611.36,389.81 611.54,397.38C611.73,404.97 612.71,413.08 614.5,421.71Z" style="fill:rgb(249,249,249);fill-rule:nonzero;"/>
                <path d="M774.71,462.7C774.71,466.76 775.25,469.67 776.32,471.43C777.39,473.19 778.91,474.69 780.87,475.93C783.37,477.52 785.38,478.4 786.9,478.57C788.41,478.75 790.07,479.36 791.85,480.42C792.74,481.13 793.28,482.01 793.46,483.06C793.64,484.12 793.55,484.82 793.19,485.18C793.01,485.53 791.89,485.66 789.84,485.58C787.79,485.49 785.02,485.32 781.54,485.05C778.06,484.79 774,484.52 769.35,484.26C764.71,484 759.71,483.86 754.35,483.86C748.99,483.86 743.91,483.99 739.08,484.26C734.26,484.52 730.01,484.79 726.36,485.05C722.7,485.31 724.82,485.49 722.68,485.58C720.54,485.67 719.29,485.53 718.93,485.18C718.57,484.83 718.48,484.12 718.66,483.06C718.84,482 719.37,481.12 720.27,480.42C721.88,479.19 718.59,478.53 720.47,478.44C722.34,478.35 724.62,477.51 727.3,475.93C729.08,474.7 730.47,473.2 731.45,471.43C732.43,469.67 732.92,466.76 732.92,462.7L732.92,360.89L712.83,360.89C712.47,360.36 712.34,359.48 712.43,358.25C712.52,357.02 713.19,355.96 714.44,355.08C715.87,353.85 717.96,353.19 720.73,353.1C723.5,353.01 726.4,352.97 729.43,352.97L732.91,352.97L732.91,351.12C732.91,340.37 734.96,330.67 739.07,322.03C743.18,313.39 748.67,306.08 755.54,300.08C762.41,294.09 770.36,289.5 779.38,286.33C788.39,283.16 797.73,281.57 807.37,281.57C815.94,281.57 823.48,282.45 830,284.21C836.52,285.97 841.96,288.35 846.34,291.35C850.71,294.35 854.01,297.87 856.25,301.93C858.48,305.99 859.6,310.31 859.6,314.89C859.6,321.24 857.37,326.62 852.9,331.02C848.44,335.43 842.99,337.63 836.56,337.63C830.13,337.63 824.64,335.43 820.09,331.02C815.54,326.62 813.26,321.24 813.26,314.89C813.26,309.25 815.04,304.36 818.62,300.21C822.19,296.07 826.74,293.47 832.28,292.41C826.03,289.59 818.17,288.18 808.71,288.18C802.64,288.18 796.57,289.06 790.5,290.82C784.43,292.58 779.03,295.23 774.3,298.75C769.57,302.28 765.73,306.6 762.78,311.71C759.83,316.83 758.36,322.73 758.36,329.43C758.36,335.07 759.87,339.97 762.91,344.11C765.94,348.25 769.87,351.21 774.69,352.97L808.17,352.97C808.35,353.5 808.39,354.38 808.3,355.61C808.21,356.85 807.63,357.9 806.56,358.78C804.95,360.02 802.81,360.68 800.13,360.76C797.45,360.85 794.59,360.89 791.56,360.89L774.69,360.89L774.69,462.7L774.71,462.7ZM817.3,393.68C817.3,390.16 816.81,387.42 815.83,385.48C814.85,383.54 813.55,382.04 811.95,380.98C809.98,379.57 808.15,378.65 806.46,378.2C804.76,377.76 803.2,377.01 801.77,375.95C800.87,375.42 800.34,374.67 800.16,373.7C799.98,372.73 800.07,371.89 800.43,371.19C805.61,371.19 810.78,370.75 815.96,369.87C821.14,368.99 826.04,367.71 830.69,366.04C835.33,364.37 839.62,362.21 843.54,359.56C847.47,356.92 856.45,348.38 858.95,344.85L859.07,350.3L859.07,462.7C859.07,466.76 859.51,469.67 860.41,471.43C861.3,473.19 862.73,474.69 864.69,475.93C867.19,477.52 869.24,478.4 870.85,478.57C872.46,478.75 874.15,479.36 875.94,480.42C876.83,481.13 877.37,482.01 877.55,483.06C877.73,484.12 877.64,484.82 877.28,485.18C877.1,485.53 875.98,485.66 873.93,485.58C871.88,485.49 869.11,485.32 865.63,485.05C862.15,484.79 858.09,484.52 853.44,484.26C848.8,484 843.8,483.86 838.44,483.86C833.08,483.86 828,483.99 823.17,484.26C818.35,484.52 814.15,484.79 810.58,485.05C807.01,485.31 804.15,485.49 802.01,485.58C799.87,485.67 798.62,485.53 798.26,485.18C797.9,484.83 797.81,484.12 797.99,483.06C798.17,482 798.7,481.12 799.6,480.42C801.38,479.19 803.22,478.48 805.09,478.3C806.96,478.13 809.15,477.33 811.65,475.92C813.61,474.69 815.04,473.19 815.93,471.42C816.82,469.66 817.27,466.75 817.27,462.69L817.27,393.68L817.3,393.68Z" style="fill:rgb(249,249,249);fill-rule:nonzero;"/>
                <path d="M943.17,278L943.17,462.7C943.17,466.76 943.61,469.67 944.51,471.43C945.4,473.19 946.83,474.69 948.8,475.93C951.3,477.52 953.39,478.4 955.09,478.57C956.78,478.75 958.44,479.36 960.04,480.42C960.93,481.13 961.47,482.01 961.65,483.06C961.83,484.12 961.74,484.82 961.38,485.18C961.2,485.53 960.08,485.66 958.03,485.58C955.98,485.49 953.21,485.32 949.73,485.05C946.25,484.79 942.19,484.52 937.54,484.26C932.9,484 927.9,483.86 922.54,483.86C917.18,483.86 912.1,483.99 907.27,484.26C902.45,484.52 898.25,484.79 894.68,485.05C891.11,485.31 888.25,485.49 886.11,485.58C883.97,485.67 882.72,485.53 882.36,485.18C882,484.83 881.91,484.12 882.09,483.06C882.27,482 882.8,481.12 883.7,480.42C885.48,479.19 887.32,478.53 889.19,478.44C891.06,478.35 893.25,477.51 895.75,475.93C897.71,474.7 899.14,473.2 900.03,471.43C900.92,469.67 901.37,466.76 901.37,462.7L901.37,328.36C901.37,324.84 900.88,322.1 899.9,320.16C898.92,318.22 897.62,316.64 896.02,315.4" style="fill:rgb(249,249,249);fill-rule:nonzero;"/>
                <path d="M969.72,419.33C969.72,409.99 971.41,401.13 974.81,392.75C978.2,384.38 982.89,377.06 988.87,370.8C994.85,364.54 1001.9,359.56 1010.03,355.86C1018.15,352.16 1027.04,350.31 1036.68,350.31C1046.32,350.31 1055.11,352.03 1062.52,355.47C1069.93,358.91 1076.04,363.4 1080.87,368.96C1085.69,374.51 1089.17,380.77 1091.31,387.74C1093.45,394.71 1094.16,401.8 1093.45,409.03C1093.27,410.79 1092.65,411.94 1091.58,412.47C1090.51,413 1089.17,413.35 1087.56,413.53L1009.63,413.53C1010.52,419.88 1012.08,426.22 1014.32,432.57C1016.55,438.92 1019.58,444.65 1023.43,449.76C1027.27,454.88 1031.95,459.06 1037.49,462.32C1043.02,465.58 1049.54,467.21 1057.04,467.21C1063.29,467.21 1068.96,465.93 1074.05,463.38C1079.14,460.83 1083.47,457.43 1087.04,453.2L1091.86,456.37C1090.79,458.66 1088.69,461.62 1085.57,465.23C1082.44,468.85 1078.51,472.33 1073.79,475.68C1069.06,479.03 1063.57,481.89 1057.32,484.27C1051.07,486.65 1044.2,487.84 1036.7,487.84C1027.06,487.84 1018.13,486.12 1009.92,482.68C1001.71,479.24 994.61,474.44 988.63,468.27C982.65,462.1 978.01,454.83 974.7,446.45C971.37,438.07 969.72,429.03 969.72,419.33ZM1057.02,406.9C1056.84,400.91 1056.12,394.78 1054.88,388.52C1053.63,382.26 1051.8,376.71 1049.39,371.86C1046.98,367.01 1044.08,363.18 1040.69,360.36C1037.3,357.54 1033.46,356.48 1029.17,357.19C1022.03,358.6 1016.58,363.93 1012.83,373.19C1009.08,382.45 1007.74,393.68 1008.81,406.91L1057.02,406.91L1057.02,406.9Z" style="fill:rgb(249,249,249);fill-rule:nonzero;"/>
            </g>
            <circle cx="1109.11" cy="481.52" r="12.89" style="fill:rgb(243,243,243);"/>
        </g>
        <g transform="matrix(1,0,0,1,0.195576,0.436266)">
            <path d="M550.12,577.53L542.42,577.53L542.42,563.48L528.22,563.48L528.22,577.53L520.52,577.53L520.52,542.53L528.22,542.53L528.22,556.38L542.42,556.38L542.42,542.53L550.12,542.53L550.12,577.53Z" style="fill:rgb(250,250,250);fill-rule:nonzero;"/>
            <path d="M610.17,577.53L583.52,577.53L583.52,542.53L609.92,542.53L609.92,549.38L591.17,549.38L591.17,556.48L607.67,556.48L607.67,563.33L591.17,563.33L591.17,570.68L610.17,570.68L610.17,577.53Z" style="fill:rgb(250,250,250);fill-rule:nonzero;"/>
            <path d="M676.12,577.53L668.07,577.53L664.87,569.68L650.07,569.68L646.87,577.53L639.02,577.53L654.02,542.28L661.12,542.28L676.12,577.53ZM662.12,562.88L657.47,551.53L652.82,562.88L662.12,562.88Z" style="fill:rgb(250,250,250);fill-rule:nonzero;"/>
            <path d="M731.67,577.53L706.52,577.53L706.52,542.53L714.22,542.53L714.22,570.53L731.67,570.53L731.67,577.53Z" style="fill:rgb(250,250,250);fill-rule:nonzero;"/>
            <path d="M788.98,549.63L778.33,549.63L778.33,577.53L770.63,577.53L770.63,549.63L759.98,549.63L759.98,542.53L788.98,542.53L788.98,549.63Z" style="fill:rgb(250,250,250);fill-rule:nonzero;"/>
            <path d="M849.47,577.53L841.77,577.53L841.77,563.48L827.57,563.48L827.57,577.53L819.87,577.53L819.87,542.53L827.57,542.53L827.57,556.38L841.77,556.38L841.77,542.53L849.47,542.53L849.47,577.53Z" style="fill:rgb(250,250,250);fill-rule:nonzero;"/>
        </g>
    </g>
</svg>
