<?xml version="1.0" encoding="UTF-8"?> <svg xmlns="http://www.w3.org/2000/svg" width="135" height="42" viewBox="0 0 135 42" fill="none"><path d="M50.344 33V9.64H54.664L61.736 19.464L69.096 9.64H73.224V33H68.872V16.616L61.704 26.28L54.696 16.776V33H50.344ZM75.7793 33V14.28H80.1313V33H75.7793ZM75.2353 9.704C75.2353 8.072 76.2913 6.984 77.9553 6.984C79.6513 6.984 80.6753 8.072 80.6753 9.704C80.6753 11.336 79.6513 12.392 77.9553 12.392C76.1953 12.392 75.2353 11.336 75.2353 9.704ZM81.951 18.152V14.28H85.151V11.432L89.503 8.456V14.28H93.311V18.152H89.503V25.16C89.503 28.424 89.983 28.936 93.311 28.936V33H92.703C86.911 33 85.151 31.144 85.151 25.192V18.152H81.951ZM95.4043 33V14.28H99.6923V17.064C100.556 15.208 102.156 14.28 104.492 14.28C105.868 14.28 106.924 14.6 107.788 15.08L106.156 19.176C105.516 18.76 104.812 18.44 103.564 18.44C101.036 18.44 99.7243 19.784 99.7243 23.016V33H95.4043ZM109.186 33V14.28H113.538V33H109.186ZM108.642 9.704C108.642 8.072 109.698 6.984 111.362 6.984C113.058 6.984 114.082 8.072 114.082 9.704C114.082 11.336 113.058 12.392 111.362 12.392C109.602 12.392 108.642 11.336 108.642 9.704ZM114.785 33L121.825 23.464L115.041 14.28H120.321L124.577 20.232L128.801 14.28H133.921L127.201 23.528L134.369 33H129.089L124.513 26.76L120.065 33H114.785Z" fill="white"></path><circle cx="32" cy="25" r="1" fill="url(#paint0_linear_26_12607)"></circle><circle cx="29.5" cy="30.5" r="1.5" fill="url(#paint1_linear_26_12607)"></circle><circle cx="24" cy="35" r="2" fill="url(#paint2_linear_26_12607)"></circle><circle cx="14.5" cy="35.5" r="2.5" fill="url(#paint3_linear_26_12607)"></circle><circle cx="6" cy="30" r="3" fill="url(#paint4_linear_26_12607)"></circle><circle cx="3.5" cy="20.5" r="3.5" fill="url(#paint5_linear_26_12607)"></circle><circle cx="8" cy="10" r="4" fill="url(#paint6_linear_26_12607)"></circle><circle cx="18.5" cy="5.5" r="4.5" fill="url(#paint7_linear_26_12607)"></circle><circle cx="32" cy="6" r="6" fill="url(#paint8_linear_26_12607)"></circle><defs><linearGradient id="paint0_linear_26_12607" x1="32" y1="24" x2="32" y2="26" gradientUnits="userSpaceOnUse"><stop stop-color="#67EEC8"></stop><stop offset="1" stop-color="#57BBDB"></stop></linearGradient><linearGradient id="paint1_linear_26_12607" x1="29.5" y1="29" x2="29.5" y2="32" gradientUnits="userSpaceOnUse"><stop stop-color="#67EEC8"></stop><stop offset="1" stop-color="#57BBDB"></stop></linearGradient><linearGradient id="paint2_linear_26_12607" x1="24" y1="33" x2="24" y2="37" gradientUnits="userSpaceOnUse"><stop stop-color="#67EEC8"></stop><stop offset="1" stop-color="#57BBDB"></stop></linearGradient><linearGradient id="paint3_linear_26_12607" x1="14.5" y1="33" x2="14.5" y2="38" gradientUnits="userSpaceOnUse"><stop stop-color="#67EEC8"></stop><stop offset="1" stop-color="#57BBDB"></stop></linearGradient><linearGradient id="paint4_linear_26_12607" x1="6" y1="27" x2="6" y2="33" gradientUnits="userSpaceOnUse"><stop stop-color="#67EEC8"></stop><stop offset="1" stop-color="#57BBDB"></stop></linearGradient><linearGradient id="paint5_linear_26_12607" x1="3.5" y1="17" x2="3.5" y2="24" gradientUnits="userSpaceOnUse"><stop stop-color="#67EEC8"></stop><stop offset="1" stop-color="#57BBDB"></stop></linearGradient><linearGradient id="paint6_linear_26_12607" x1="8" y1="6" x2="8" y2="14" gradientUnits="userSpaceOnUse"><stop stop-color="#67EEC8"></stop><stop offset="1" stop-color="#57BBDB"></stop></linearGradient><linearGradient id="paint7_linear_26_12607" x1="18.5" y1="1" x2="18.5" y2="10" gradientUnits="userSpaceOnUse"><stop stop-color="#67EEC8"></stop><stop offset="1" stop-color="#57BBDB"></stop></linearGradient><linearGradient id="paint8_linear_26_12607" x1="32" y1="0" x2="32" y2="12" gradientUnits="userSpaceOnUse"><stop stop-color="#67EEC8"></stop><stop offset="1" stop-color="#57BBDB"></stop></linearGradient></defs></svg> 