<?xml version="1.0" encoding="UTF-8"?>
<svg id="Layer_1" xmlns="http://www.w3.org/2000/svg" version="1.1" viewBox="0 0 1366 768">
  <!-- Generator: Adobe Illustrator 30.0.0, SVG Export Plug-In . SVG Version: 2.1.1 Build 123)  -->
  <g>
    <g>
      <path d="M336.52,462.7c0,4.06.44,6.97,1.34,8.73.89,1.76,2.32,3.26,4.28,4.5,2.5,1.41,4.64,2.21,6.43,2.38,1.78.18,3.57.88,5.36,2.12.89.71,1.43,1.59,1.61,2.64.18,1.06.09,1.76-.27,2.12-.18.35-1.43.48-3.75.4-2.32-.09-5.36-.26-9.11-.53-3.75-.26-8.08-.53-12.99-.79s-10.04-.4-15.4-.4-10.49.13-15.4.4c-4.91.26-9.24.53-12.99.79s-6.79.44-9.11.53c-2.32.09-3.66-.05-4.02-.4s-.45-1.06-.27-2.12c.18-1.06.71-1.94,1.61-2.64,1.61-1.06,3.44-1.67,5.49-1.85,2.05-.17,4.42-1.06,7.1-2.64,1.78-1.23,3.17-2.73,4.15-4.5.98-1.76,1.47-4.67,1.47-8.73v-140.17c.18-4.05-.23-6.96-1.21-8.73-.98-1.76-2.46-3.26-4.42-4.5-2.5-1.59-4.69-2.47-6.56-2.64s-3.62-.79-5.22-1.85c-.9-.7-1.43-1.59-1.61-2.64-.18-1.06-.09-1.76.27-2.12.54-.7,4.28-.66,11.25.13s15.89,1.19,26.78,1.19c5.36,0,10.4-.09,15.13-.26s9.42-.31,14.06-.4c4.64-.09,9.37-.22,14.19-.4,4.82-.17,10-.26,15.53-.26,11.25,0,20.89,1.5,28.92,4.5,8.03,3,14.6,6.97,19.68,11.9,5.09,4.94,8.84,10.45,11.25,16.53s3.62,12.3,3.62,18.64c0,9.17-1.87,17.54-5.62,25.12s-8.84,14.11-15.27,19.57c-6.43,5.47-13.97,9.7-22.63,12.69-8.66,3-17.99,4.5-27.99,4.5-4.46,0-8.88-.44-13.26-1.32s-8.53-2.02-12.45-3.44v53.95h.03ZM336.52,399.5c3.03,1.41,6.38,2.56,10.04,3.44s7.36,1.32,11.11,1.32,6.87-.4,9.91-1.19c3.03-.79,6.07-2.25,9.11-4.36,3.21-2.29,5.89-5.69,8.03-10.18,2.14-4.5,3.52-9.61,4.15-15.34.62-5.73.4-11.9-.67-18.51-1.07-6.61-3.21-13.26-6.43-19.97-3.57-7.4-8.13-13.49-13.66-18.25-5.54-4.76-11.25-7.14-17.14-7.14-4.64,0-8.17,1.19-10.58,3.57-2.41,2.38-3.62,7.01-3.62,13.88l-.25,72.73Z"/>
      <path d="M544.07,350.31c3.21,0,6.29.49,9.24,1.45,2.95.97,5.58,2.43,7.9,4.36,2.32,1.94,4.19,4.36,5.62,7.27s2.14,6.31,2.14,10.18c0,5.82-2.01,10.58-6.03,14.28s-8.7,5.55-14.06,5.55-9.91-1.76-13.66-5.29c-3.75-3.52-5.62-7.93-5.62-13.22,0-3.52.8-6.65,2.41-9.39,1.61-2.73,3.75-4.98,6.43-6.74-3.93.53-7.72,1.94-11.38,4.23-3.66,2.29-7.06,4.94-10.18,7.93-3.13,3-5.98,6.31-8.57,9.92-2.59,3.62-4.78,7.01-6.56,10.18v71.67c0,4.06.44,6.97,1.34,8.73.89,1.76,2.32,3.26,4.28,4.5,2.5,1.59,4.59,2.47,6.29,2.64,1.69.18,3.35.79,4.95,1.85.89.71,1.43,1.59,1.61,2.64.18,1.06.09,1.76-.27,2.12-.18.35-1.3.48-3.35.4-2.05-.09-4.82-.26-8.3-.53-3.48-.26-7.54-.53-12.19-.79-4.64-.26-9.64-.4-15-.4s-10.44.13-15.27.4c-4.82.26-9.02.53-12.59.79s-6.43.44-8.57.53-3.39-.05-3.75-.4-.45-1.06-.27-2.12c.18-1.06.71-1.94,1.61-2.64,1.78-1.23,3.62-1.94,5.49-2.12,1.87-.17,4.06-.97,6.56-2.38,1.96-1.23,3.39-2.73,4.28-4.5.89-1.76,1.34-4.67,1.34-8.73v-68.76c0-3.7-.49-6.52-1.47-8.46s-2.28-3.44-3.88-4.5c-1.97-1.41-3.8-2.33-5.49-2.78-1.7-.44-3.26-1.19-4.69-2.25-.9-.53-1.43-1.28-1.61-2.25s-.09-1.81.27-2.51c5.18,0,10.35-.44,15.53-1.32s10.08-2.16,14.73-3.83c4.64-1.67,8.93-3.83,12.85-6.48,3.93-2.64,7.14-5.73,9.64-9.26h5.89v28.56c2.14-3.17,4.73-6.43,7.77-9.78,3.03-3.35,6.38-6.43,10.04-9.26,3.66-2.82,7.54-5.11,11.65-6.88,4.15-1.72,8.44-2.61,12.9-2.61Z"/>
      <path d="M570.58,419.07c0-10.05,1.74-19.3,5.22-27.77,3.48-8.46,8.3-15.73,14.46-21.82s13.52-10.8,22.09-14.15,17.94-5.02,28.12-5.02,19.86,1.68,28.52,5.02c8.66,3.35,16.07,8.02,22.23,14.02s10.93,13.22,14.33,21.68c3.39,8.46,5.09,17.81,5.09,28.03s-1.74,19.3-5.22,27.77-8.3,15.73-14.46,21.82c-6.16,6.08-13.57,10.8-22.23,14.15s-18.08,5.02-28.25,5.02-19.82-1.68-28.39-5.02c-8.57-3.35-15.93-8.02-22.09-14.02-6.16-5.99-10.94-13.22-14.33-21.68-3.4-8.46-5.09-17.81-5.09-28.03ZM614.5,421.71c1.96,9.17,4.24,17.5,6.83,24.99,2.59,7.5,5.53,13.84,8.84,19.04,3.3,5.2,6.92,9.08,10.85,11.64,3.93,2.56,8.03,3.48,12.32,2.78,3.75-.53,6.92-2.55,9.51-6.08,2.59-3.52,4.46-8.15,5.62-13.88s1.65-12.38,1.47-19.97c-.18-7.58-1.07-15.69-2.68-24.33-1.61-9.16-3.75-17.49-6.43-24.99-2.68-7.49-5.72-13.79-9.11-18.91-3.39-5.11-7.1-8.95-11.11-11.5-4.02-2.55-8.08-3.48-12.19-2.78-3.75.53-6.92,2.56-9.51,6.08-2.59,3.53-4.51,8.11-5.76,13.75s-1.79,12.26-1.61,19.83c.19,7.59,1.17,15.7,2.96,24.33Z"/>
      <path d="M774.71,462.7c0,4.06.54,6.97,1.61,8.73s2.59,3.26,4.55,4.5c2.5,1.59,4.51,2.47,6.03,2.64,1.51.18,3.17.79,4.95,1.85.89.71,1.43,1.59,1.61,2.64.18,1.06.09,1.76-.27,2.12-.18.35-1.3.48-3.35.4-2.05-.09-4.82-.26-8.3-.53-3.48-.26-7.54-.53-12.19-.79-4.64-.26-9.64-.4-15-.4s-10.44.13-15.27.4c-4.82.26-9.07.53-12.72.79-3.66.26-1.54.44-3.68.53s-3.39-.05-3.75-.4-.45-1.06-.27-2.12.71-1.94,1.61-2.64c1.61-1.23-1.68-1.89.2-1.98,1.87-.09,4.15-.93,6.83-2.51,1.78-1.23,3.17-2.73,4.15-4.5.98-1.76,1.47-4.67,1.47-8.73v-101.81h-20.09c-.36-.53-.49-1.41-.4-2.64.09-1.23.76-2.29,2.01-3.17,1.43-1.23,3.52-1.89,6.29-1.98,2.77-.09,5.67-.13,8.7-.13h3.48v-1.85c0-10.75,2.05-20.45,6.16-29.09,4.11-8.64,9.6-15.95,16.47-21.95,6.87-5.99,14.82-10.58,23.84-13.75,9.01-3.17,18.35-4.76,27.99-4.76,8.57,0,16.11.88,22.63,2.64s11.96,4.14,16.34,7.14c4.37,3,7.67,6.52,9.91,10.58,2.23,4.06,3.35,8.38,3.35,12.96,0,6.35-2.23,11.73-6.7,16.13-4.46,4.41-9.91,6.61-16.34,6.61s-11.92-2.2-16.47-6.61c-4.55-4.4-6.83-9.78-6.83-16.13,0-5.64,1.78-10.53,5.36-14.68,3.57-4.14,8.12-6.74,13.66-7.8-6.25-2.82-14.11-4.23-23.57-4.23-6.07,0-12.14.88-18.21,2.64s-11.47,4.41-16.2,7.93c-4.73,3.53-8.57,7.85-11.52,12.96-2.95,5.12-4.42,11.02-4.42,17.72,0,5.64,1.51,10.54,4.55,14.68,3.03,4.14,6.96,7.1,11.78,8.86h33.48c.18.53.22,1.41.13,2.64-.09,1.24-.67,2.29-1.74,3.17-1.61,1.24-3.75,1.9-6.43,1.98-2.68.09-5.54.13-8.57.13h-16.87v101.81h.02ZM817.3,393.68c0-3.52-.49-6.26-1.47-8.2s-2.28-3.44-3.88-4.5c-1.97-1.41-3.8-2.33-5.49-2.78-1.7-.44-3.26-1.19-4.69-2.25-.9-.53-1.43-1.28-1.61-2.25s-.09-1.81.27-2.51c5.18,0,10.35-.44,15.53-1.32,5.18-.88,10.08-2.16,14.73-3.83,4.64-1.67,8.93-3.83,12.85-6.48,3.93-2.64,12.91-11.18,15.41-14.71l.12,5.45v112.4c0,4.06.44,6.97,1.34,8.73.89,1.76,2.32,3.26,4.28,4.5,2.5,1.59,4.55,2.47,6.16,2.64,1.61.18,3.3.79,5.09,1.85.89.71,1.43,1.59,1.61,2.64.18,1.06.09,1.76-.27,2.12-.18.35-1.3.48-3.35.4-2.05-.09-4.82-.26-8.3-.53-3.48-.26-7.54-.53-12.19-.79-4.64-.26-9.64-.4-15-.4s-10.44.13-15.27.4c-4.82.26-9.02.53-12.59.79s-6.43.44-8.57.53-3.39-.05-3.75-.4-.45-1.06-.27-2.12.71-1.94,1.61-2.64c1.78-1.23,3.62-1.94,5.49-2.12,1.87-.17,4.06-.97,6.56-2.38,1.96-1.23,3.39-2.73,4.28-4.5.89-1.76,1.34-4.67,1.34-8.73v-69.01h.03Z"/>
      <path d="M943.17,278v184.7c0,4.06.44,6.97,1.34,8.73.89,1.76,2.32,3.26,4.29,4.5,2.5,1.59,4.59,2.47,6.29,2.64,1.69.18,3.35.79,4.95,1.85.89.71,1.43,1.59,1.61,2.64.18,1.06.09,1.76-.27,2.12-.18.35-1.3.48-3.35.4-2.05-.09-4.82-.26-8.3-.53-3.48-.26-7.54-.53-12.19-.79-4.64-.26-9.64-.4-15-.4s-10.44.13-15.27.4c-4.82.26-9.02.53-12.59.79s-6.43.44-8.57.53-3.39-.05-3.75-.4-.45-1.06-.27-2.12.71-1.94,1.61-2.64c1.78-1.23,3.62-1.89,5.49-1.98s4.06-.93,6.56-2.51c1.96-1.23,3.39-2.73,4.28-4.5.89-1.76,1.34-4.67,1.34-8.73v-134.34c0-3.52-.49-6.26-1.47-8.2s-2.28-3.52-3.88-4.76"/>
      <path d="M969.72,419.33c0-9.34,1.69-18.2,5.09-26.58,3.39-8.37,8.08-15.69,14.06-21.95s13.03-11.24,21.16-14.94c8.12-3.7,17.01-5.55,26.65-5.55s18.43,1.72,25.84,5.16c7.41,3.44,13.52,7.93,18.35,13.49,4.82,5.55,8.3,11.81,10.44,18.78,2.14,6.97,2.85,14.06,2.14,21.29-.18,1.76-.8,2.91-1.87,3.44s-2.41.88-4.02,1.06h-77.93c.89,6.35,2.45,12.69,4.69,19.04,2.23,6.35,5.26,12.08,9.11,17.19,3.84,5.12,8.52,9.3,14.06,12.56,5.53,3.26,12.05,4.89,19.55,4.89,6.25,0,11.92-1.28,17.01-3.83s9.42-5.95,12.99-10.18l4.82,3.17c-1.07,2.29-3.17,5.25-6.29,8.86-3.13,3.62-7.06,7.1-11.78,10.45-4.73,3.35-10.22,6.21-16.47,8.59s-13.12,3.57-20.62,3.57c-9.64,0-18.57-1.72-26.78-5.16s-15.31-8.24-21.29-14.41-10.62-13.44-13.93-21.82c-3.33-8.38-4.98-17.42-4.98-27.12ZM1057.02,406.9c-.18-5.99-.9-12.12-2.14-18.38-1.25-6.26-3.08-11.81-5.49-16.66s-5.31-8.68-8.7-11.5c-3.39-2.82-7.23-3.88-11.52-3.17-7.14,1.41-12.59,6.74-16.34,16s-5.09,20.49-4.02,33.72h48.21Z"/>
    </g>
    <circle cx="1109.11" cy="481.52" r="12.89"/>
  </g>
  <g>
    <path d="M550.12,577.53h-7.7v-14.05h-14.2v14.05h-7.7v-35h7.7v13.85h14.2v-13.85h7.7v35Z"/>
    <path d="M610.17,577.53h-26.65v-35h26.4v6.85h-18.75v7.1h16.5v6.85h-16.5v7.35h19v6.85Z"/>
    <path d="M676.12,577.53h-8.05l-3.2-7.85h-14.8l-3.2,7.85h-7.85l15-35.25h7.1l15,35.25ZM662.12,562.88l-4.65-11.35-4.65,11.35h9.3Z"/>
    <path d="M731.67,577.53h-25.15v-35h7.7v28h17.45v7Z"/>
    <path d="M788.98,549.63h-10.65v27.9h-7.7v-27.9h-10.65v-7.1h29v7.1Z"/>
    <path d="M849.47,577.53h-7.7v-14.05h-14.2v14.05h-7.7v-35h7.7v13.85h14.2v-13.85h7.7v35Z"/>
  </g>
</svg>