<?xml version="1.0" encoding="UTF-8" standalone="no"?>
<!DOCTYPE svg PUBLIC "-//W3C//DTD SVG 1.1//EN" "http://www.w3.org/Graphics/SVG/1.1/DTD/svg11.dtd">
<svg width="100%" height="100%" viewBox="0 0 120 79" version="1.1" xmlns="http://www.w3.org/2000/svg" xmlns:xlink="http://www.w3.org/1999/xlink" xml:space="preserve" xmlns:serif="http://www.serif.com/" style="fill-rule:evenodd;clip-rule:evenodd;stroke-linejoin:round;stroke-miterlimit:2;">
    <g transform="matrix(1,0,0,1,0.08,0.07)">
        <path d="M111.09,78.86L-0.08,78.86L-0.08,-0.07L111.09,-0.07L111.09,78.86ZM2.92,75.86L108.09,75.86L108.09,2.93L2.92,2.93L2.92,75.86Z" style="fill:rgb(251,251,251);fill-rule:nonzero;"/>
        <path d="M16.47,35.38L16.47,11.52L30.5,11.52L30.5,13.38L18.36,13.38L18.36,22.22L30.27,22.22L30.27,24.08L18.36,24.08L18.36,33.53L30.5,33.53L30.5,35.39L16.47,35.38Z" style="fill:rgb(251,251,251);fill-rule:nonzero;"/>
        <path d="M85.53,11.52C91.74,11.52 95.85,16.88 95.85,23.86C95.85,30.83 91.74,36.2 85.53,36.2C79.29,36.2 75.22,30.84 75.22,23.86C75.22,16.88 79.29,11.52 85.53,11.52ZM85.53,13.37C80.37,13.37 77.13,17.77 77.13,23.85C77.13,29.86 80.38,34.33 85.53,34.33C90.63,34.33 93.94,29.86 93.94,23.85C93.94,17.77 90.63,13.37 85.53,13.37Z" style="fill:rgb(251,251,251);fill-rule:nonzero;"/>
        <path d="M16.47,67.41L16.47,43.55L18.36,43.55L18.36,65.55L29.07,65.55L29.07,67.41L16.47,67.41Z" style="fill:rgb(251,251,251);fill-rule:nonzero;"/>
        <path d="M45.59,42.69L47.53,42.69L47.53,57.35C47.53,62.18 49.91,65.11 54.3,65.11C58.73,65.11 61.08,62.18 61.08,57.35L61.08,42.69L63.02,42.69L63.02,57.4C63.02,63.3 60.07,66.99 54.3,66.99C48.56,66.99 45.59,63.27 45.59,57.4L45.59,42.69Z" style="fill:rgb(251,251,251);fill-rule:nonzero;"/>
        <path d="M93.09,66.89L85.37,56.12L77.67,66.89L75.28,66.89L84.2,54.66L75.78,43.03L78.2,43.03L85.37,53.15L92.57,43.03L94.96,43.03L86.57,54.62L95.46,66.89L93.09,66.89Z" style="fill:rgb(251,251,251);fill-rule:nonzero;"/>
        <path d="M62.04,35.38L54.32,24.61L46.62,35.38L44.23,35.38L53.15,23.15L44.73,11.52L47.15,11.52L54.32,21.64L61.52,11.52L63.91,11.52L55.52,23.11L64.41,35.38L62.04,35.38Z" style="fill:rgb(251,251,251);fill-rule:nonzero;"/>
        <rect x="29.05" y="65.55" width="1.37" height="1.86" style="fill:rgb(251,251,251);fill-rule:nonzero;"/>
        <path d="M111.17,78.93L0,78.93L0,0L111.17,0L111.17,78.93ZM3,75.93L108.17,75.93L108.17,3L3,3L3,75.93Z" style="fill:rgb(251,251,251);fill-rule:nonzero;"/>
        <path d="M16.47,35.38L16.47,11.52L30.5,11.52L30.5,13.38L18.36,13.38L18.36,22.22L30.27,22.22L30.27,24.08L18.36,24.08L18.36,33.53L30.5,33.53L30.5,35.39L16.47,35.38Z" style="fill:rgb(251,251,251);fill-rule:nonzero;"/>
        <path d="M85.53,11.52C91.74,11.52 95.85,16.88 95.85,23.86C95.85,30.83 91.74,36.2 85.53,36.2C79.29,36.2 75.22,30.84 75.22,23.86C75.22,16.88 79.29,11.52 85.53,11.52ZM85.53,13.37C80.37,13.37 77.13,17.77 77.13,23.85C77.13,29.86 80.38,34.33 85.53,34.33C90.63,34.33 93.94,29.86 93.94,23.85C93.94,17.77 90.63,13.37 85.53,13.37Z" style="fill:rgb(251,251,251);fill-rule:nonzero;"/>
        <path d="M16.47,67.41L16.47,43.55L18.36,43.55L18.36,65.55L29.07,65.55L29.07,67.41L16.47,67.41Z" style="fill:rgb(251,251,251);fill-rule:nonzero;"/>
        <path d="M45.59,42.69L47.53,42.69L47.53,57.35C47.53,62.18 49.91,65.11 54.3,65.11C58.73,65.11 61.08,62.18 61.08,57.35L61.08,42.69L63.02,42.69L63.02,57.4C63.02,63.3 60.07,66.99 54.3,66.99C48.56,66.99 45.59,63.27 45.59,57.4L45.59,42.69Z" style="fill:rgb(251,251,251);fill-rule:nonzero;"/>
        <path d="M93.09,66.89L85.37,56.12L77.67,66.89L75.28,66.89L84.2,54.66L75.78,43.03L78.2,43.03L85.37,53.15L92.57,43.03L94.96,43.03L86.57,54.62L95.46,66.89L93.09,66.89Z" style="fill:rgb(251,251,251);fill-rule:nonzero;"/>
        <path d="M62.04,35.38L54.32,24.61L46.62,35.38L44.23,35.38L53.15,23.15L44.73,11.52L47.15,11.52L54.32,21.64L61.52,11.52L63.91,11.52L55.52,23.11L64.41,35.38L62.04,35.38Z" style="fill:rgb(251,251,251);fill-rule:nonzero;"/>
        <rect x="29.05" y="65.55" width="1.37" height="1.86" style="fill:rgb(251,251,251);fill-rule:nonzero;"/>
        <g>
            <path d="M112.43,76.13L112.43,75.57L115.29,75.57L115.29,76.13L114.19,76.13L114.19,78.93L113.52,78.93L113.52,76.13L112.43,76.13ZM116.82,75.57L117.68,77.98L118.54,75.57L119.5,75.57L119.5,78.93L118.88,78.93L118.88,76.22L117.95,78.93L117.41,78.93L116.47,76.22L116.47,78.93L115.85,78.93L115.85,75.57L116.82,75.57Z" style="fill:rgb(251,251,251);fill-rule:nonzero;"/>
        </g>
    </g>
</svg>
