<svg viewBox="0 0 24 24" xmlns="http://www.w3.org/2000/svg" aria-hidden="true" role="img">
  <path fill="currentColor" d="M12 2.25c-5.38 0-9.75 4.37-9.75 9.75 0 4.3 2.79 7.94 6.67 9.23.49.09.67-.21.67-.47 0-.23-.01-.98-.01-1.79-2.44.45-3.07-.6-3.27-1.16-.11-.29-.6-1.16-1.03-1.39-.35-.19-.85-.66-.01-.67.79-.01 1.35.73 1.54 1.03.9 1.51 2.34 1.09 2.91.83.09-.65.35-1.09.63-1.34-2.16-.25-4.43-1.08-4.43-4.79 0-1.06.38-1.93 1.02-2.61-.1-.25-.45-1.27.1-2.65 0 0 .82-.26 2.69 1.01A9.3 9.3 0 0 1 12 6.32c.83 0 1.67.11 2.45.33 1.86-1.29 2.68-1.01 2.68-1.01.55 1.38.2 2.4.1 2.65.64.68 1.02 1.55 1.02 2.61 0 3.72-2.28 4.53-4.45 4.78.36.31.68.92.68 1.86 0 1.34-.01 2.42-.01 2.75 0 .26.18.57.68.47A9.77 9.77 0 0 0 21.75 12c0-5.38-4.37-9.75-9.75-9.75Z"/>
</svg>
