<svg class="w-full h-full 2xl:h-[100vh] 3xl:h-[90vh]" viewBox="0 0 1350 1335" fill="none" xmlns="http://www.w3.org/2000/svg"><path d="M55.0255 650.068C54.8677 997.631 336.458 1279.48 683.975 1279.59C1031.49 1279.7 1313.34 998.037 1313.5 650.475C1313.65 302.913 1032.06 21.0667 684.547 20.9544C337.03 20.8422 55.1833 302.506 55.0255 650.068Z" stroke="#FF5E58" stroke-miterlimit="10" pathLength="1" stroke-dashoffset="0px" stroke-dasharray="1px 1px"></path><path d="M109.741 650.096C109.597 967.436 366.701 1224.77 683.999 1224.88C1001.3 1224.98 1258.64 967.807 1258.78 650.468C1258.92 333.128 1001.82 75.7904 684.521 75.6879C367.223 75.5854 109.885 332.757 109.741 650.096Z" stroke="#FF5E58" stroke-width="1.63" stroke-miterlimit="10" pathLength="1" stroke-dashoffset="0px" stroke-dasharray="1px 1px"></path><path d="M164.457 650.085C164.327 937.202 396.945 1170.03 684.025 1170.12C971.104 1170.22 1203.93 937.538 1204.06 650.421C1204.19 363.305 971.576 130.475 684.497 130.383C397.417 130.29 164.588 362.969 164.457 650.085Z" stroke="#FF5E58" stroke-width="1.79" stroke-miterlimit="10" pathLength="1" stroke-dashoffset="0px" stroke-dasharray="1px 1px"></path><path d="M219.174 650.113C219.058 907.007 427.19 1115.33 684.051 1115.41C940.911 1115.49 1149.23 907.307 1149.35 650.414C1149.47 393.52 941.334 185.199 684.473 185.116C427.612 185.033 219.291 393.219 219.174 650.113Z" stroke="#FF5E58" stroke-width="2.11" stroke-miterlimit="10" pathLength="1" stroke-dashoffset="0px" stroke-dasharray="1px 1px"></path><path d="M274.047 650.098C273.944 876.682 457.519 1060.42 684.073 1060.5C910.628 1060.57 1094.37 876.947 1094.47 650.364C1094.58 423.78 911 240.038 684.446 239.965C457.892 239.892 274.15 423.515 274.047 650.098Z" stroke="#FF5E58" stroke-width="2.42" stroke-miterlimit="10" pathLength="1" stroke-dashoffset="0px" stroke-dasharray="1px 1px"></path><path d="M328.764 650.145C328.674 846.506 487.763 1005.74 684.099 1005.8C880.434 1005.87 1039.67 846.736 1039.76 650.375C1039.85 454.014 880.757 294.781 684.422 294.717C488.086 294.654 328.853 453.785 328.764 650.145Z" stroke="#FF5E58" stroke-width="2.74" stroke-miterlimit="10" pathLength="1" stroke-dashoffset="0px" stroke-dasharray="1px 1px"></path><path d="M383.48 650.173C383.405 816.311 518.008 951.036 684.125 951.09C850.241 951.144 984.966 816.506 985.042 650.368C985.117 484.23 850.514 349.505 684.398 349.451C518.281 349.397 383.556 484.035 383.48 650.173Z" stroke="#FF5E58" stroke-width="3.06" stroke-miterlimit="10" pathLength="1" stroke-dashoffset="0px" stroke-dasharray="1px 1px"></path><path d="M438.198 650.201C438.136 786.116 548.253 896.333 684.15 896.377C820.048 896.421 930.265 786.275 930.327 650.36C930.388 514.445 820.271 404.228 684.374 404.184C548.476 404.14 438.259 514.286 438.198 650.201Z" stroke="#FF5E58" stroke-width="3.37" stroke-miterlimit="10" pathLength="1" stroke-dashoffset="0px" stroke-dasharray="1px 1px"></path><path d="M492.913 650.171C492.865 755.863 578.495 841.572 684.174 841.606C789.853 841.64 875.561 755.987 875.609 650.295C875.657 544.602 790.027 458.894 684.348 458.86C578.669 458.825 492.96 544.478 492.913 650.171Z" stroke="#FF5E58" stroke-width="3.53" stroke-miterlimit="10" pathLength="1" stroke-dashoffset="0px" stroke-dasharray="1px 1px"></path><path d="M547.629 650.199C547.595 725.668 608.739 786.868 684.199 786.893C759.659 786.917 820.859 725.757 820.894 650.287C820.928 574.817 759.783 513.617 684.323 513.593C608.864 513.569 547.663 574.729 547.629 650.199Z" stroke="#FF5E58" stroke-width="3.85" stroke-miterlimit="10" pathLength="1" stroke-dashoffset="0px" stroke-dasharray="1px 1px"></path><path d="M602.345 650.245C602.324 695.492 638.983 732.183 684.224 732.198C729.466 732.212 766.158 695.544 766.178 650.298C766.199 605.051 729.54 568.36 684.299 568.345C639.057 568.331 602.365 604.999 602.345 650.245Z" stroke="#FF5E58" stroke-width="4.16" stroke-miterlimit="10" fill="rgba(255, 255, 255, 0)" pathLength="1" stroke-dashoffset="0px" stroke-dasharray="1px 1px"></path><path d="M240.845 1111.74C240.842 1119.69 247.283 1126.13 255.231 1126.14C263.18 1126.14 269.626 1119.7 269.629 1111.75C269.632 1103.8 263.191 1097.36 255.242 1097.35C247.294 1097.35 240.848 1103.79 240.845 1111.74Z" fill="#00D996" class="animate-pulse "></path><path d="M993.724 896.905C993.721 904.853 1000.16 911.299 1008.11 911.302C1016.06 911.305 1022.5 904.865 1022.51 896.916C1022.51 888.968 1016.07 882.522 1008.12 882.519C1000.17 882.516 993.727 888.957 993.724 896.905Z" fill="#00D996" class="animate-pulse "></path></svg>