<?xml version="1.0" encoding="UTF-8" standalone="no"?>
<!DOCTYPE svg PUBLIC "-//W3C//DTD SVG 1.1//EN" "http://www.w3.org/Graphics/SVG/1.1/DTD/svg11.dtd">
<svg width="100%" height="100%" viewBox="0 0 170 74" version="1.1" xmlns="http://www.w3.org/2000/svg" xmlns:xlink="http://www.w3.org/1999/xlink" xml:space="preserve" xmlns:serif="http://www.serif.com/" style="fill-rule:evenodd;clip-rule:evenodd;stroke-linejoin:round;stroke-miterlimit:2;">
    <g transform="matrix(1,0,0,1,-183.076,0)">
        <g id="Artboard1" transform="matrix(0.980347,0,0,1,185.742,2.3972)">
            <rect x="-2.719" y="-2.397" width="173.408" height="73.993" style="fill:none;"/>
            <g transform="matrix(1.02005,0,0,1,3.36421,2.77952)">
                <g transform="matrix(1.1572,0,0,1.1572,-19.7328,-2.17943)">
                    <g transform="matrix(1,0,0,1,-10,-4)">
                        <path d="M85.942,21.814C85.372,20.527 84.647,19.424 83.689,18.453C82.744,17.5 81.628,16.733 80.399,16.193C79.134,15.636 77.767,15.35 76.385,15.353L69.495,15.353L72.94,18.873L76.385,18.873C77.3,18.872 78.206,19.051 79.052,19.398C80.716,20.138 82.04,21.48 82.756,23.154C83.117,24.01 83.302,24.93 83.3,25.859C83.302,26.788 83.117,27.708 82.756,28.564C82.4,29.39 81.9,30.145 81.28,30.796C80.658,31.453 79.907,31.952 79.078,32.319C78.223,32.669 77.308,32.847 76.385,32.844L72.94,32.844L69.495,36.364L76.385,36.364C77.767,36.369 79.135,36.083 80.399,35.524C81.639,34.991 82.765,34.223 83.715,33.264C84.647,32.293 85.372,31.19 85.942,29.904C86.486,28.642 86.745,27.304 86.745,25.859C86.745,24.414 86.485,23.075 85.942,21.814M97.656,36.364L104.219,23.206L110.755,36.364L114.636,36.364L104.219,15.354L93.802,36.364L97.656,36.364M134.474,26.305C135.304,25.123 135.694,23.81 135.694,22.34C135.694,20.422 135.019,18.794 133.669,17.402C132.319,16.036 130.683,15.354 128.788,15.354L119.676,15.354L121.467,18.479L121.857,18.873L128.788,18.873C129.723,18.873 130.528,19.214 131.203,19.897C131.904,20.58 132.241,21.394 132.241,22.34C132.241,23.311 131.904,24.152 131.203,24.834C130.528,25.517 129.723,25.859 128.788,25.859L125.699,25.832L131.722,36.364L135.694,36.364L131.436,28.826C132.656,28.327 133.669,27.487 134.474,26.306L134.474,26.305M160,15.354L155.146,15.354L146.213,24.414L144.767,25.884L146.213,27.329L155.146,36.364L160,36.364L149.672,25.859L160,15.354" style="fill:rgb(156,133,223);fill-rule:nonzero;"/>
                    </g>
                    <g transform="matrix(1,0,0,1,-10,-4)">
                        <path d="M102.538,46.868L102.538,48.629L105.995,48.629L105.995,57.374L107.726,57.374L107.726,48.628L111.163,48.628L111.163,46.868L102.538,46.868ZM118.892,46.868L118.892,48.629L122.349,48.629L122.349,57.374L124.08,57.374L124.08,48.628L127.517,48.628L127.517,46.868L118.892,46.868ZM135.918,57.374L135.918,46.869L142.862,46.869L142.862,48.629L137.671,48.629L137.671,51.255L142.862,51.255L142.862,53L137.671,53L137.671,55.613L142.862,55.613L142.862,57.373L135.918,57.373L135.918,57.374ZM159.386,52.344C159.804,51.754 160,51.097 160,50.362C160,49.403 159.66,48.589 158.981,47.893C158.339,47.227 157.448,46.856 156.523,46.869L151.935,46.869L151.935,57.374L153.713,57.374L153.713,48.628L156.523,48.628C156.994,48.628 157.399,48.799 157.739,49.141C158.092,49.481 158.262,49.889 158.262,50.361C158.262,50.848 158.092,51.268 157.739,51.609C157.399,51.951 156.994,52.121 156.523,52.121L154.968,52.108L158,57.374L160,57.374L157.857,53.605C158.471,53.355 158.981,52.935 159.386,52.345L159.386,52.344Z" style="fill:rgb(156,133,223);fill-rule:nonzero;"/>
                        <path d="M94.438,57.374L96.378,57.374L91.169,46.869L85.961,57.374L87.888,57.374L88.641,55.864L93.666,55.821L94.438,57.374ZM92.803,54.084L91.169,50.795L89.529,54.085L92.804,54.085L92.803,54.084Z" style="fill:rgb(156,133,223);"/>
                        <path d="M78.193,51.097L74.703,54.603L71.213,51.097L71.213,57.374L69.495,57.374L69.495,46.869L74.704,52.121L79.912,46.869L79.912,57.374L78.193,57.374L78.193,51.097" style="fill:rgb(156,133,223);fill-rule:nonzero;"/>
                    </g>
                </g>
                <g id="appIcon__Dark-Matter-Bio" transform="matrix(1,0,0,1,0.280653,0.602799)">
                    <g transform="matrix(1,0,0,1,0,-4)">
                        <path d="M20.922,24.26L20.809,24.457L21.57,24.893L21.683,24.696L20.922,24.259L20.922,24.26M31.242,54.696C28.097,56.056 24.706,56.756 21.279,56.751C17.741,56.751 14.372,56.019 11.317,54.696C9.444,56.516 7.357,58.101 5.102,59.418C10.145,62.364 15.898,63.877 21.738,63.795C27.267,63.715 32.683,62.207 37.458,59.418C35.203,58.101 33.115,56.516 31.242,54.696" style="fill:rgb(156,133,223);fill-rule:nonzero;"/>
                    </g>
                    <g transform="matrix(0.892857,0,0,0.892857,2.28,2.63582)">
                        <path d="M20.97,24.887C17.022,27.25 13.621,30.425 10.99,34.2C7.583,35.933 3.822,36.857 0,36.901C1.981,33.554 4.719,30.717 7.993,28.618C12.507,28.215 16.888,26.877 20.858,24.69L21.152,24.521L21.152,24.201C21.072,19.661 20.035,15.189 18.111,11.076C18.289,7.188 19.374,3.394 21.279,0C23.175,3.378 24.259,7.151 24.445,11.02C22.496,15.164 21.451,19.676 21.378,24.255L21.378,24.391L21.566,24.283L21.606,24.259C25.511,21.913 28.88,18.772 31.493,15.04C34.92,13.282 38.709,12.344 42.56,12.3C40.59,15.628 37.871,18.453 34.621,20.549C30.057,20.945 25.628,22.296 21.62,24.513L21.378,24.652L21.379,24.948C21.455,29.518 22.501,34.02 24.447,38.156C24.265,42.034 23.18,45.817 21.279,49.202C19.369,45.8 18.284,41.997 18.11,38.1C20.031,33.996 21.068,29.533 21.152,25.002L21.152,24.782L21.036,24.848C21.014,24.861 20.992,24.874 20.97,24.887ZM20.91,24.513C16.912,22.301 12.495,20.951 7.943,20.552C4.691,18.456 1.971,15.63 0,12.3C3.833,12.344 7.605,13.274 11.02,15.017C13.655,18.786 17.06,21.954 21.01,24.31L21.133,24.516L20.91,24.513ZM31.524,34.177C28.891,30.405 25.488,27.234 21.539,24.875L21.426,24.685L21.671,24.69C25.651,26.882 30.045,28.221 34.571,28.62C37.843,30.719 40.579,33.555 42.559,36.901C38.72,36.857 34.943,35.924 31.524,34.177Z" style="fill:rgb(156,133,223);"/>
                    </g>
                </g>
            </g>
        </g>
    </g>
</svg>
