<svg xmlns="http://www.w3.org/2000/svg" width="160" height="64" fill="none"><path fill="#fff" d="M20.91 24.513a32.686 32.686 0 0 0-12.967-3.961A24.913 24.913 0 0 1 0 12.3a24.87 24.87 0 0 1 11.02 2.717 32.518 32.518 0 0 0 9.99 9.293l.123.206-.223-.003zM7.993 28.618a32.686 32.686 0 0 0 12.865-3.928l.275-.004a22.48 22.48 0 0 1-.097.162A32.52 32.52 0 0 0 10.99 34.2 24.874 24.874 0 0 1 0 36.901a24.914 24.914 0 0 1 7.993-8.283zM18.11 38.1a32.307 32.307 0 0 0 3.041-13.098l.128-.232.1.178a32.304 32.304 0 0 0 3.068 13.208 24.95 24.95 0 0 1-3.168 11.046A24.95 24.95 0 0 1 18.11 38.1zm13.414-3.923a32.52 32.52 0 0 0-9.985-9.302 27.867 27.867 0 0 1-.113-.19l.245.005a32.687 32.687 0 0 0 12.9 3.93 24.915 24.915 0 0 1 7.988 8.281 24.874 24.874 0 0 1-11.035-2.724zm3.096-13.628a32.687 32.687 0 0 0-13 3.964l-.194.003.14-.233a32.52 32.52 0 0 0 9.927-9.243A24.873 24.873 0 0 1 42.56 12.3a24.915 24.915 0 0 1-7.939 8.249zM24.445 11.02a32.308 32.308 0 0 0-3.067 13.235l-.099.176a23.65 23.65 0 0 1-.128-.23 32.306 32.306 0 0 0-3.04-13.125A24.95 24.95 0 0 1 21.279 0a24.95 24.95 0 0 1 3.166 11.02z"/><path fill="#fff" d="M21.152 24.142h.226v.86h-.226v-.86z"/><path fill="#fff" d="m21.607 24.259.113.197-.75.431-.112-.197.748-.431z"/><path fill="#fff" d="m20.922 24.26-.113.197.761.436.113-.197-.761-.437zm10.32 30.436a25.013 25.013 0 0 1-9.963 2.055c-3.538 0-6.907-.732-9.962-2.055a32.266 32.266 0 0 1-6.215 4.722 32.085 32.085 0 0 0 16.636 4.377 32.089 32.089 0 0 0 15.72-4.377 32.263 32.263 0 0 1-6.216-4.722zm54.7-32.882c-.57-1.287-1.295-2.39-2.253-3.361a10.694 10.694 0 0 0-3.29-2.26 9.916 9.916 0 0 0-4.014-.84h-6.89l3.445 3.52h3.445a7.01 7.01 0 0 1 2.667.525 7.218 7.218 0 0 1 3.704 3.756 6.91 6.91 0 0 1 .544 2.705 6.91 6.91 0 0 1-.544 2.705 7.582 7.582 0 0 1-1.476 2.232c-.622.657-1.373 1.156-2.202 1.523a7.04 7.04 0 0 1-2.693.525H72.94l-3.445 3.52h6.89a9.826 9.826 0 0 0 4.014-.84 10.508 10.508 0 0 0 3.316-2.26c.932-.971 1.657-2.074 2.227-3.36.544-1.262.803-2.6.803-4.045 0-1.445-.26-2.784-.803-4.045zm11.714 14.55 6.563-13.158 6.536 13.158h3.881l-10.417-21.01-10.417 21.01h3.854zm36.818-10.059c.83-1.182 1.22-2.495 1.22-3.965 0-1.918-.675-3.546-2.025-4.938-1.35-1.366-2.986-2.048-4.881-2.048h-9.112l1.791 3.125.39.394h6.931c.935 0 1.74.341 2.415 1.024.701.683 1.038 1.497 1.038 2.443 0 .971-.337 1.812-1.038 2.494-.675.683-1.48 1.025-2.415 1.025l-3.089-.027 6.023 10.532h3.972l-4.258-7.538c1.22-.499 2.233-1.339 3.038-2.52zM160 15.354h-4.854l-8.933 9.06-1.446 1.47 1.446 1.445 8.933 9.035H160l-10.328-10.505L160 15.354zM78.193 51.097l-3.49 3.506-3.49-3.506v6.277h-1.718V46.869l5.209 5.252 5.208-5.252v10.505h-1.719v-6.277z"/><path fill="#fff" fill-rule="evenodd" d="M94.438 57.374h1.94l-5.209-10.505-5.208 10.505h1.927l.753-1.51 5.025-.043.772 1.553zm-1.635-3.29-1.634-3.289-1.64 3.29h3.275z" clip-rule="evenodd"/><path fill="#fff" d="M102.538 46.869v1.76h3.457v8.745h1.731v-8.746h3.437v-1.76h-8.625zm16.354 0v1.76h3.457v8.745h1.731v-8.746h3.437v-1.76h-8.625zm17.026 10.505V46.869h6.944v1.76h-5.191v2.626h5.191V53h-5.191v2.613h5.191v1.76h-6.944zm23.468-5.03c.418-.59.614-1.247.614-1.982 0-.959-.34-1.773-1.019-2.469a3.35 3.35 0 0 0-2.458-1.024h-4.588v10.505h1.778v-8.746h2.81c.471 0 .876.171 1.216.513.353.34.523.748.523 1.22 0 .487-.17.907-.523 1.248-.34.342-.745.512-1.216.512l-1.555-.013L158 57.374h2l-2.143-3.769c.614-.25 1.124-.67 1.529-1.26z"/></svg>