<svg xmlns="http://www.w3.org/2000/svg" width="100%" height="100%" viewBox="0 0 159 22" fill="none" preserveAspectRatio="xMidYMid meet" aria-hidden="true" role="img">
<path d="M2.4775 17.4357L1.33397 16.7685L0 14.8389V13.4573L0.333558 11.8373L2.09633 10.0743L4.45479 9.4786H6.17022L7.76634 10.0029L8.38584 10.4079V8.59722L8.1237 7.88248L7.12302 7.23917L5.95569 6.95349H4.026L3.00178 7.28705L2.26324 7.76345L1.81037 8.21604L0.452572 6.81037L1.1197 6.19114L2.26322 5.45259L3.78792 5H6.24161L7.95704 5.42879L9.71981 6.61992L10.3631 8.23985V15.4584L11.2921 16.7923L9.696 17.9361L8.55247 16.2207L8.00465 16.8402L5.81284 17.9361H4.09742L2.4775 17.4357ZM5.38406 15.9824L7.1709 15.3155L8.14751 14.291L8.38584 13.5525V12.6711L7.88537 12.1468L7.14683 11.7656L5.95569 11.4321H4.66932L3.097 11.8612L2.16775 12.7901L1.9773 13.6239V14.2672L2.71584 15.3155L3.26366 15.6491L4.38338 15.9824H5.38406Z" fill="currentColor"></path>
<path d="M17 5.19045H18.9773V6.4292L19.5727 5.90519L21.145 5H23.3369L25.2665 5.57163L26.172 6.81037L27.22 5.90519L28.8878 5H31.0797L33.0093 5.57163L34.4623 7.52511V17.7454H32.485V8.28746L31.8896 7.35847L30.6747 6.95349H29.15L27.4822 8.0494L26.7198 9.16885V17.7454H24.7425V8.38269L24.1468 7.40608L22.9319 6.95349H21.4072L19.692 8.0494L18.9773 9.07362V17.7454H17V5.19045Z" fill="currentColor"></path>
<path d="M43.6444 17.6293L42.9773 17.2005V17.9628H41V0H42.9773V6.67042L43.5016 6.1226L44.9546 5.21742H47.3371L49.8146 6.36094L51.4346 8.55249L51.9351 10.2441V13.079L51.4346 14.8182L49.8146 17.0098L47.4324 18.1536H45.0739L43.6444 17.6293ZM47.1226 16.2236L48.5283 15.4613L49.6718 13.9366L49.9575 12.8171V10.506L49.6718 9.43414L48.5283 7.88564L47.0274 7.1709H45.2167L43.6682 8.26682L42.9773 9.29103V14.6989L43.4778 15.3184L44.383 15.9141L45.3596 16.2236L47.1226 16.2236Z" fill="currentColor"></path>
<path d="M58.1204 16.7923L56.5005 14.6008L56 12.9092V10.0743L56.5005 8.33508L58.1204 6.14353L60.5027 5H63.0995L65.5056 6.14353L67.1017 8.33508L67.6498 9.9312V12.4328H57.9773V12.6711L58.287 13.7191L59.4306 15.2676L60.8839 15.9824H62.8135L64.4097 15.5774L65.6487 14.7912L66.6967 16.3636L65.1482 17.388L62.9804 17.9361H60.5265L58.1204 16.7923ZM65.6725 10.4793V10.1695L65.3627 9.26434L64.2192 7.71583L62.7659 6.95349H60.8124L59.383 7.69203L58.2632 9.21673L57.9773 10.2648V10.4793H65.6725Z" fill="currentColor"></path>
<path d="M73 5.19045H74.9773V6.64373L75.8825 5.76235L77.5024 5H80.004L82.2196 5.76235L81.6239 7.62034L79.718 6.95349H77.8839L76.4782 7.57273L75.5013 8.66864L74.9773 9.81216V17.7454H73L73 5.19045Z" fill="currentColor"></path>
<path d="M89.1204 16.7923L87.5005 14.6008L87 12.9092V10.0743L87.5005 8.33508L89.1204 6.14353L91.5265 5H94.1947L96.0054 5.59543L97.6729 7.16774L96.2675 8.47819L95.0287 7.28705L93.9566 6.95349H91.9077L90.383 7.69203L89.287 9.19292L88.9775 10.3364V12.6235L89.2632 13.7191L90.4306 15.2676L91.9076 15.9824H93.9566L95.0287 15.6012L96.2675 14.4577L97.6491 15.8157L96.0053 17.3404L94.1947 17.9361H91.5265L89.1204 16.7923Z" fill="currentColor"></path>
<path d="M107.194 15.8874L102 5H104.239L108.266 13.6004L112.244 5H114.436L106.789 21.4143H104.621L107.194 15.8874Z" fill="currentColor"></path>
<path d="M119.12 16.7923L117.5 14.6008L117 12.9092V10.0743L117.5 8.33508L119.12 6.14353L121.526 5H124.195L126.005 5.59543L127.673 7.16774L126.268 8.47819L125.028 7.28705L123.957 6.95349H121.908L120.383 7.69203L119.287 9.19292L118.978 10.3364V12.6235L119.263 13.7191L120.431 15.2676L121.908 15.9824H123.957L125.028 15.6012L126.268 14.4577L127.649 15.8157L126.005 17.3404L124.195 17.9361H121.526L119.12 16.7923Z" fill="currentColor"></path>
<path d="M133 16.0093H136.907V1.95349H133.238V0H138.885V16.0093H142.792V17.9628H133V16.0093Z" fill="currentColor"></path>
<path d="M149.12 16.7923L147.5 14.6008L147 12.9092V10.0743L147.5 8.33508L149.12 6.14353L151.503 5H154.099L156.506 6.14353L158.102 8.33508L158.65 9.9312V12.4328H148.978V12.6711L149.287 13.7191L150.431 15.2676L151.884 15.9824H153.814L155.41 15.5774L156.649 14.7912L157.697 16.3636L156.148 17.388L153.98 17.9361H151.526L149.12 16.7923ZM156.672 10.4793V10.1695L156.362 9.26434L155.219 7.71583L153.766 6.95349H151.812L150.383 7.69203L149.263 9.21673L148.978 10.2648V10.4793H156.672Z" fill="currentColor"></path>
</svg>