<svg width="407" height="83" viewBox="0 0 407 83" fill="none" xmlns="http://www.w3.org/2000/svg">
<path fill-rule="evenodd" clip-rule="evenodd" d="M54.4999 7C54.8977 7 55.2793 7.15803 55.5606 7.43934C55.8419 7.72064 55.9999 8.10217 55.9999 8.5L55.9999 19.9888L67.4879 19.9888C67.8858 19.9888 68.2673 20.1468 68.5486 20.4281C68.8299 20.7094 68.988 21.0909 68.988 21.4888L68.9879 58.4887C68.988 58.8866 68.8299 59.2681 68.5486 59.5494L52.5486 75.5494C51.9628 76.1352 51.0131 76.1352 50.4273 75.5494C49.8415 74.9636 49.8415 74.0139 50.4273 73.4281L65.988 57.8674V22.9888L56.0002 22.9888V54.9887C56.0002 56.6455 54.6571 57.9887 53.0002 57.9887H41.3191V69.6697C41.3191 71.3266 39.976 72.6697 38.3191 72.6697H6.31911C4.66225 72.6697 3.31911 71.3266 3.31911 69.6697V37.6697C3.31911 36.0129 4.66225 34.6697 6.31911 34.6697H18.0002V22.9887C18.0002 21.3318 19.3433 19.9887 21.0002 19.9887H52.9999L52.9999 10L18.1213 10.0002L2.56066 25.5609C1.97488 26.1467 1.02513 26.1467 0.439344 25.5609C-0.146446 24.9751 -0.146448 24.0254 0.439337 23.4396L16.4393 7.43951C16.7206 7.15821 17.1021 7.00017 17.4999 7.00017L54.4999 7ZM52.9999 22.9888L52.488 22.9888L52.4655 22.9887H21.0002V34.6697H38.3191C39.976 34.6697 41.3191 36.0129 41.3191 37.6697V54.9887H53.0002V23.529C53 23.5194 52.9999 23.5097 52.9999 23.5V22.9888ZM38.3191 37.6697V54.9887H21.0002V37.6697H38.3191ZM18.0002 54.9887V37.6697H6.31911V69.6697H38.3191V57.9887H21.0002C19.3433 57.9887 18.0002 56.6455 18.0002 54.9887Z" fill="#66FCF1"/>
<path d="M116.202 65.792C113.298 65.792 111.01 65.264 109.338 64.208C107.71 63.152 106.544 61.678 105.84 59.786C105.18 57.894 104.85 55.672 104.85 53.12V35.828H95.28V33.584L104.916 33.32L105.312 22.826H107.754V33.32H124.65V35.828H107.754V53.384C107.754 55.408 107.996 57.168 108.48 58.664C108.964 60.16 109.844 61.304 111.12 62.096C112.396 62.844 114.222 63.218 116.598 63.218C118.27 63.218 119.766 63.086 121.086 62.822C122.45 62.514 123.77 62.096 125.046 61.568L125.838 63.812C124.386 64.384 122.89 64.846 121.35 65.198C119.854 65.594 118.138 65.792 116.202 65.792ZM140.332 65V33.32H142.84L143.17 41.108H143.302C145.018 38.6 147.13 36.554 149.638 34.97C152.19 33.342 155.05 32.528 158.218 32.528C159.274 32.528 160.352 32.616 161.452 32.792C162.552 32.968 163.586 33.32 164.554 33.848L163.762 36.422C162.574 36.026 161.584 35.74 160.792 35.564C160.044 35.388 159.032 35.3 157.756 35.3C155.116 35.3 152.586 36.048 150.166 37.544C147.79 39.04 145.502 41.592 143.302 45.2V65H140.332ZM191.456 65V35.828H175.55V33.32H194.36V65H191.456ZM192.182 25.598C191.346 25.598 190.62 25.312 190.004 24.74C189.388 24.168 189.08 23.398 189.08 22.43C189.08 21.462 189.388 20.692 190.004 20.12C190.62 19.548 191.346 19.262 192.182 19.262C193.062 19.262 193.788 19.548 194.36 20.12C194.976 20.692 195.284 21.462 195.284 22.43C195.284 23.398 194.976 24.168 194.36 24.74C193.788 25.312 193.062 25.598 192.182 25.598ZM235.981 65.792C233.033 65.792 230.723 64.978 229.051 63.35C227.423 61.678 226.609 59.038 226.609 55.43V20.054H214.663V17.546H229.513V55.826C229.513 58.334 230.107 60.204 231.295 61.436C232.483 62.624 234.199 63.218 236.443 63.218C237.455 63.218 238.489 63.086 239.545 62.822C240.645 62.558 241.789 62.14 242.977 61.568L243.901 63.812C242.581 64.428 241.327 64.912 240.139 65.264C238.995 65.616 237.609 65.792 235.981 65.792ZM268.097 65.792C265.325 65.792 262.773 65.154 260.441 63.878C258.109 62.558 256.239 60.666 254.831 58.202C253.423 55.694 252.719 52.702 252.719 49.226C252.719 45.706 253.423 42.692 254.831 40.184C256.239 37.676 258.109 35.784 260.441 34.508C262.773 33.188 265.325 32.528 268.097 32.528C270.869 32.528 273.421 33.188 275.753 34.508C278.085 35.784 279.955 37.676 281.363 40.184C282.771 42.692 283.475 45.706 283.475 49.226C283.475 52.702 282.771 55.694 281.363 58.202C279.955 60.666 278.085 62.558 275.753 63.878C273.421 65.154 270.869 65.792 268.097 65.792ZM268.097 63.218C270.473 63.218 272.585 62.646 274.433 61.502C276.325 60.314 277.777 58.664 278.789 56.552C279.845 54.44 280.373 51.998 280.373 49.226C280.373 46.454 279.845 44.012 278.789 41.9C277.777 39.744 276.325 38.072 274.433 36.884C272.585 35.696 270.473 35.102 268.097 35.102C265.721 35.102 263.609 35.696 261.761 36.884C259.913 38.072 258.461 39.744 257.405 41.9C256.349 44.012 255.821 46.454 255.821 49.226C255.821 51.998 256.349 54.44 257.405 56.552C258.461 58.664 259.913 60.314 261.761 61.502C263.609 62.646 265.721 63.218 268.097 63.218ZM308.331 65.792C306.703 65.792 304.921 65.396 302.985 64.604C301.093 63.812 299.333 62.756 297.705 61.436H297.573L297.243 65H294.801V17.546H297.771V31.274L297.573 38.072H297.705C299.333 36.444 301.203 35.124 303.315 34.112C305.471 33.056 307.561 32.528 309.585 32.528C312.577 32.528 315.063 33.188 317.043 34.508C319.023 35.828 320.519 37.698 321.531 40.118C322.543 42.538 323.049 45.398 323.049 48.698C323.049 52.262 322.367 55.32 321.003 57.872C319.639 60.424 317.835 62.382 315.591 63.746C313.347 65.11 310.927 65.792 308.331 65.792ZM308.199 63.218C310.443 63.218 312.445 62.602 314.205 61.37C316.009 60.138 317.417 58.444 318.429 56.288C319.441 54.088 319.947 51.558 319.947 48.698C319.947 46.102 319.573 43.792 318.825 41.768C318.121 39.7 316.977 38.072 315.393 36.884C313.853 35.696 311.763 35.102 309.123 35.102C307.451 35.102 305.625 35.586 303.645 36.554C301.709 37.478 299.751 38.93 297.771 40.91V58.532C299.619 60.204 301.489 61.414 303.381 62.162C305.273 62.866 306.879 63.218 308.199 63.218ZM349.753 65V35.828H333.847V33.32H352.657V65H349.753ZM350.479 25.598C349.643 25.598 348.917 25.312 348.301 24.74C347.685 24.168 347.377 23.398 347.377 22.43C347.377 21.462 347.685 20.692 348.301 20.12C348.917 19.548 349.643 19.262 350.479 19.262C351.359 19.262 352.085 19.548 352.657 20.12C353.273 20.692 353.581 21.462 353.581 22.43C353.581 23.398 353.273 24.168 352.657 24.74C352.085 25.312 351.359 25.598 350.479 25.598ZM386.82 65.792C384.048 65.792 381.496 65.154 379.164 63.878C376.832 62.558 374.962 60.666 373.554 58.202C372.146 55.694 371.442 52.702 371.442 49.226C371.442 45.706 372.146 42.692 373.554 40.184C374.962 37.676 376.832 35.784 379.164 34.508C381.496 33.188 384.048 32.528 386.82 32.528C389.592 32.528 392.144 33.188 394.476 34.508C396.808 35.784 398.678 37.676 400.086 40.184C401.494 42.692 402.198 45.706 402.198 49.226C402.198 52.702 401.494 55.694 400.086 58.202C398.678 60.666 396.808 62.558 394.476 63.878C392.144 65.154 389.592 65.792 386.82 65.792ZM386.82 63.218C389.196 63.218 391.308 62.646 393.156 61.502C395.048 60.314 396.5 58.664 397.512 56.552C398.568 54.44 399.096 51.998 399.096 49.226C399.096 46.454 398.568 44.012 397.512 41.9C396.5 39.744 395.048 38.072 393.156 36.884C391.308 35.696 389.196 35.102 386.82 35.102C384.444 35.102 382.332 35.696 380.484 36.884C378.636 38.072 377.184 39.744 376.128 41.9C375.072 44.012 374.544 46.454 374.544 49.226C374.544 51.998 375.072 54.44 376.128 56.552C377.184 58.664 378.636 60.314 380.484 61.502C382.332 62.646 384.444 63.218 386.82 63.218Z" fill="#66FCF1"/>
</svg>
