<svg width="334" height="40" viewBox="0 0 334 40" fill="none" xmlns="http://www.w3.org/2000/svg">
<path opacity="0.5" d="M20.5603 21.0315C37.3061 18.8063 38.4476 9.36717 39.982 0.00012207V23.4159C39.982 32.5806 32.5462 40.0078 23.3788 40.0001L0.000244316 39.9804L0.00024423 39.9452C0.000209819 32.045 0.000171661 23.7636 20.5603 21.0315Z" fill="white"/>
<path d="M10.0068 4.68023C12.8982 4.68023 15.2421 7.0234 15.2421 9.91385C15.2421 12.8043 12.8982 15.1475 10.0068 15.1475C7.11552 15.1475 4.77164 12.8043 4.77164 9.91384C4.77164 7.0234 7.11552 4.68023 10.0068 4.68023Z" fill="white"/>
<path d="M21.0224 20.5766C18.7949 37.306 9.37657 38.4476 0 39.9805L23.4054 39.9798C32.579 39.9795 40.0108 32.5362 39.9941 23.3654L39.988 19.9965V0C32.0691 1.06192e-05 23.7613 0.00622177 21.0224 20.5766Z" fill="white"/>
<path d="M56.048 8.04749V22.1304C56.048 24.4197 56.4991 26.1541 57.4012 27.2987C58.3034 28.4434 59.6913 28.9984 61.5996 28.9984C63.508 28.9984 64.9306 28.4434 65.8327 27.2987C66.7348 26.1541 67.2206 24.4197 67.2206 22.1304V8.04749H71.2108V21.9223C71.2108 25.391 70.3781 28.0272 68.7473 29.8309C67.1165 31.6346 64.7224 32.5365 61.5996 32.5365C58.4768 32.5365 56.0827 31.6346 54.4866 29.8309C52.8558 28.0272 52.0578 25.391 52.0578 21.9223V8.04749H56.048Z" fill="white"/>
<path d="M87.8606 16.3031C89.1791 17.6212 89.8731 19.7024 89.8731 22.5467V32.5443H86.091V22.7548C86.091 21.0899 85.7094 19.8064 85.0154 18.9046C84.2868 18.0374 83.2458 17.5865 81.8579 17.5865C80.3659 17.5865 79.1862 18.1068 78.3535 19.1474C77.5208 20.188 77.1044 21.5755 77.1044 23.3792V32.5443H73.3571V14.5687H76.6186L77.035 16.8927C78.3535 15.2278 80.2619 14.3606 82.7254 14.3606C84.8072 14.3606 86.5421 15.0196 87.8606 16.3031Z" fill="white"/>
<path d="M109.504 8.04749V32.5442H106.242L105.791 29.6574C104.368 31.5999 102.425 32.5365 99.9965 32.5365C98.3657 32.5365 96.9084 32.1896 95.6593 31.4612C94.3755 30.7327 93.3693 29.6921 92.6754 28.3047C91.9467 26.9172 91.5997 25.3216 91.5997 23.4485C91.5997 21.6448 91.9467 20.0839 92.6754 18.6964C93.404 17.3089 94.4102 16.2683 95.694 15.5052C96.9431 14.7421 98.4004 14.3605 99.9965 14.3605C101.28 14.3605 102.425 14.6033 103.397 15.0889C104.368 15.5746 105.132 16.1989 105.756 17.0314V8.04749H109.504ZM104.368 27.7497C105.305 26.6744 105.791 25.2522 105.791 23.5179C105.791 21.7488 105.305 20.3267 104.368 19.2167C103.397 18.1067 102.148 17.5517 100.621 17.5517C99.0597 17.5517 97.8106 18.1067 96.8737 19.2167C95.9022 20.3267 95.4512 21.7141 95.4512 23.4485C95.4512 25.2175 95.9022 26.6397 96.8737 27.7497C97.8106 28.8596 99.0597 29.38 100.621 29.38C102.148 29.38 103.397 28.8596 104.368 27.7497Z" fill="white"/>
<path d="M112.235 18.6965C112.963 17.309 113.97 16.2684 115.288 15.5053C116.607 14.7422 118.099 14.3606 119.799 14.3606C121.499 14.3606 122.991 14.7075 124.309 15.4012C125.628 16.0949 126.634 17.1009 127.397 18.3496C128.161 19.633 128.542 21.1245 128.577 22.8242C128.577 23.3098 128.542 23.7608 128.473 24.2464H115.08V24.4545C115.149 26.0154 115.635 27.2295 116.537 28.1313C117.405 29.0332 118.584 29.4841 120.042 29.4841C121.187 29.4841 122.158 29.2413 122.956 28.6863C123.72 28.1313 124.24 27.3682 124.518 26.3623H128.265C127.918 28.166 127.05 29.6575 125.628 30.8022C124.205 31.9816 122.436 32.5366 120.319 32.5366C118.446 32.5366 116.849 32.1897 115.462 31.4266C114.074 30.6635 113.033 29.6228 112.269 28.2354C111.506 26.8826 111.159 25.287 111.159 23.4833C111.159 21.6795 111.506 20.0839 112.235 18.6965ZM124.76 21.5061C124.587 20.2227 124.066 19.2168 123.199 18.4883C122.332 17.7599 121.256 17.3784 119.937 17.3784C118.688 17.3784 117.647 17.7599 116.745 18.523C115.843 19.2861 115.357 20.2574 115.219 21.5061H124.76Z" fill="white"/>
<path d="M132.484 17.7248H129.396V14.4295H132.484V9.901H136.266V14.4295H140.534V17.7248H136.266V27.4179C136.266 28.1116 136.405 28.632 136.682 28.9094C136.96 29.1869 137.411 29.3257 138.105 29.3257H140.95V32.6209H137.341C135.641 32.6209 134.392 32.2394 133.629 31.4416C132.865 30.6785 132.484 29.4644 132.484 27.7995V17.7248Z" fill="white"/>
<path d="M142.736 18.6965C143.465 17.309 144.471 16.2684 145.79 15.5053C147.108 14.7422 148.6 14.3606 150.301 14.3606C152.001 14.3606 153.493 14.7075 154.811 15.4012C156.13 16.0949 157.136 17.1009 157.899 18.3496C158.663 19.633 159.044 21.1245 159.079 22.8242C159.079 23.3098 159.044 23.7608 158.975 24.2464H145.582V24.4545C145.651 26.0154 146.137 27.2295 147.039 28.1313C147.906 29.0332 149.086 29.4841 150.543 29.4841C151.688 29.4841 152.66 29.2413 153.458 28.6863C154.221 28.1313 154.742 27.3682 155.019 26.3623H158.767C158.42 28.166 157.552 29.6575 156.13 30.8022C154.707 31.9816 152.938 32.5366 150.821 32.5366C148.947 32.5366 147.351 32.1897 145.963 31.4266C144.575 30.6635 143.534 29.6228 142.771 28.2354C142.008 26.8826 141.661 25.287 141.661 23.4833C141.661 21.6795 142.008 20.0839 142.736 18.6965ZM155.262 21.5061C155.089 20.2227 154.568 19.2168 153.701 18.4883C152.833 17.7599 151.758 17.3784 150.439 17.3784C149.19 17.3784 148.149 17.7599 147.247 18.523C146.345 19.2861 145.859 20.2574 145.72 21.5061H155.262Z" fill="white"/>
<path d="M170.672 14.3911V17.8945H169.006C167.445 17.8945 166.335 18.4148 165.641 19.4207C164.947 20.4266 164.6 21.7101 164.6 23.2363V32.5825H160.853V14.3911H164.184L164.6 17.062C165.086 16.2295 165.745 15.6052 166.578 15.1195C167.376 14.6339 168.451 14.3911 169.839 14.3911H170.672Z" fill="white"/>
<path d="M182.494 14.3911V17.8945H180.829C179.267 17.8945 178.157 18.4148 177.463 19.4207C176.769 20.4266 176.422 21.7101 176.422 23.2363V32.5825H172.675V14.3911H176.006L176.422 17.062C176.908 16.2295 177.567 15.6052 178.4 15.1195C179.198 14.6339 180.274 14.3911 181.662 14.3911H182.494Z" fill="white"/>
<path d="M183.805 18.6965C184.534 17.309 185.54 16.2684 186.859 15.5053C188.177 14.7422 189.669 14.3606 191.369 14.3606C193.069 14.3606 194.561 14.7075 195.88 15.4012C197.198 16.0949 198.205 17.1009 198.968 18.3496C199.731 19.633 200.113 21.1245 200.148 22.8242C200.148 23.3098 200.113 23.7608 200.044 24.2464H186.65V24.4545C186.72 26.0154 187.206 27.2295 188.108 28.1313C188.975 29.0332 190.155 29.4841 191.612 29.4841C192.757 29.4841 193.729 29.2413 194.527 28.6863C195.29 28.1313 195.811 27.3682 196.088 26.3623H199.835C199.488 28.166 198.621 29.6575 197.198 30.8022C195.776 31.9816 194.006 32.5366 191.89 32.5366C190.016 32.5366 188.42 32.1897 187.032 31.4266C185.644 30.6635 184.603 29.6228 183.84 28.2354C183.077 26.8826 182.73 25.287 182.73 23.4833C182.73 21.6795 183.077 20.0839 183.805 18.6965ZM196.331 21.5061C196.157 20.2227 195.637 19.2168 194.77 18.4883C193.902 17.7599 192.827 17.3784 191.508 17.3784C190.259 17.3784 189.218 17.7599 188.316 18.523C187.414 19.2861 186.928 20.2574 186.789 21.5061H196.331Z" fill="white"/>
<path d="M219.491 8.04749L219.491 32.5365H216.229L215.778 29.6574C214.355 31.5999 212.412 32.5365 209.984 32.5365C208.353 32.5365 206.895 32.1896 205.646 31.4612C204.363 30.7327 203.356 29.6921 202.662 28.3047C201.934 26.9172 201.587 25.3216 201.587 23.4485C201.587 21.6448 201.934 20.0839 202.662 18.6964C203.391 17.3089 204.397 16.2683 205.681 15.5052C206.93 14.7421 208.387 14.3605 209.984 14.3605C211.267 14.3605 212.412 14.6033 213.384 15.0889C214.355 15.5746 215.119 16.1989 215.743 17.0314V8.04749H219.491ZM214.355 27.7497C215.292 26.6744 215.778 25.2522 215.778 23.5179C215.778 21.7488 215.292 20.3267 214.355 19.2167C213.384 18.1067 212.135 17.5517 210.608 17.5517C209.047 17.5517 207.798 18.1067 206.861 19.2167C205.889 20.3267 205.438 21.7141 205.438 23.4485C205.438 25.2175 205.889 26.6397 206.861 27.7497C207.798 28.8596 209.047 29.38 210.608 29.38C212.135 29.38 213.384 28.8596 214.355 27.7497Z" fill="white"/>
<path d="M230.778 13.9286C231.746 12.0634 233.093 10.6472 234.855 9.61099C236.617 8.57476 238.691 8.05664 241.04 8.05664C242.837 8.05664 244.495 8.40205 245.946 9.09287C247.398 9.7837 248.607 10.7854 249.54 12.0634C250.438 13.3414 251.026 14.8267 251.302 16.4847H247.329C246.914 14.9649 246.154 13.7559 245.048 12.8579C243.908 11.9943 242.526 11.5453 240.867 11.5453C239.347 11.5453 238.034 11.9252 236.928 12.6852C235.788 13.4451 234.924 14.4813 234.337 15.7939C233.715 17.1064 233.439 18.6262 233.439 20.3533C233.439 22.0803 233.715 23.6002 234.337 24.9127C234.924 26.2598 235.788 27.2961 236.928 28.056C238.034 28.8159 239.347 29.1613 240.867 29.1613C242.526 29.1613 243.908 28.7468 245.014 27.8487C246.119 26.9852 246.879 25.7762 247.294 24.2219H251.267C250.991 25.949 250.404 27.4342 249.505 28.6777C248.607 29.9557 247.432 30.9229 245.981 31.6137C244.53 32.3045 242.871 32.6499 241.04 32.6499C238.691 32.6499 236.617 32.1664 234.855 31.1301C233.093 30.1284 231.746 28.7122 230.778 26.847C229.811 24.9818 229.362 22.8402 229.362 20.3533C229.362 17.9354 229.811 15.7939 230.778 13.9286Z" fill="white"/>
<path d="M270.164 29.1838V32.6602H268.186C267.006 32.6602 266.174 32.4174 265.688 31.9318C265.167 31.4462 264.924 30.5366 264.924 29.6001C263.571 31.6466 261.628 32.6525 259.061 32.6525C257.048 32.6525 255.452 32.2016 254.272 31.265C253.058 30.3632 252.468 29.0798 252.468 27.4495C252.468 25.6458 253.093 24.2236 254.411 23.2524C255.695 22.2811 257.569 21.7608 260.067 21.7608H264.543V20.6855C264.543 19.7143 264.196 18.9165 263.502 18.3615C262.808 17.8065 261.836 17.4943 260.622 17.4943C259.512 17.4943 258.61 17.7371 257.916 18.2228C257.222 18.7084 256.805 19.3327 256.666 20.0958H252.989C253.162 18.3268 253.96 16.9393 255.348 15.9681C256.736 14.9969 258.54 14.4766 260.795 14.4766C263.155 14.4766 264.994 15.0316 266.312 16.1415C267.596 17.2515 268.255 18.8471 268.255 20.9283V27.9351C268.255 28.7676 268.637 29.1838 269.435 29.1838H270.164ZM264.543 24.5358H259.893C258.714 24.5358 257.846 24.7786 257.222 25.2295C256.597 25.6804 256.285 26.3395 256.285 27.2067C256.285 27.9698 256.562 28.5941 257.152 29.0451C257.742 29.5307 258.54 29.7388 259.581 29.7388C261.108 29.7388 262.322 29.3226 263.19 28.4901C264.057 27.6576 264.508 26.5476 264.543 25.1601V24.5358Z" fill="white"/>
<path d="M285.791 15.5952C287.04 16.3237 288.046 17.3643 288.775 18.7518C289.468 20.1392 289.85 21.7348 289.85 23.5732C289.85 25.377 289.468 26.9726 288.775 28.36C288.046 29.7475 287.04 30.7881 285.791 31.5512C284.507 32.3143 283.049 32.6612 281.453 32.6612C280.135 32.6612 278.99 32.4184 278.018 31.9328C277.047 31.4472 276.249 30.7881 275.694 29.9556V39.6063H271.946V14.4775H275.208L275.659 17.3296C277.081 15.4565 279.025 14.4853 281.453 14.4853C283.049 14.4853 284.507 14.8668 285.791 15.5952ZM284.576 27.8397C285.548 26.7298 286.033 25.3076 286.033 23.5732C286.033 21.8389 285.548 20.4167 284.576 19.3068C283.605 18.2315 282.355 17.6765 280.829 17.6765C279.267 17.6765 278.018 18.2315 277.081 19.3068C276.11 20.382 275.659 21.7695 275.659 23.5039C275.659 25.3076 276.11 26.7298 277.081 27.8397C278.018 28.9497 279.267 29.5047 280.829 29.5047C282.355 29.5047 283.605 28.9497 284.576 27.8397Z" fill="white"/>
<path d="M295.306 8.76293C295.723 9.17918 295.965 9.73417 295.965 10.3585C295.965 11.0176 295.723 11.5726 295.306 11.9888C294.855 12.4051 294.3 12.6132 293.675 12.6132C293.016 12.6132 292.461 12.4051 292.045 11.9888C291.594 11.5726 291.385 11.0176 291.385 10.3585C291.385 9.73417 291.594 9.17918 292.045 8.76293C292.461 8.34669 293.016 8.10388 293.675 8.10388C294.3 8.10388 294.855 8.34669 295.306 8.76293ZM291.802 14.4515H295.549V32.9744H291.802V14.4515Z" fill="white"/>
<path d="M300.865 17.7388H297.777V14.4436H300.865V10.0229H304.647V14.4436H308.914V17.7388H304.647V27.5399C304.647 28.2336 304.785 28.7539 305.063 29.0314C305.341 29.3089 305.792 29.4476 306.486 29.4476H309.331V32.7429H305.722C304.022 32.7429 302.773 32.3613 302.01 31.5635C301.246 30.8004 300.865 29.5864 300.865 27.9214V17.7388Z" fill="white"/>
<path d="M328.299 29.1838V32.6602H326.322C325.142 32.6602 324.309 32.4174 323.823 31.9318C323.303 31.4462 323.06 30.5366 323.06 29.6001C321.707 31.6466 319.764 32.6525 317.196 32.6525C315.184 32.6525 313.588 32.2016 312.408 31.265C311.193 30.3632 310.604 29.0798 310.604 27.4495C310.604 25.6458 311.228 24.2236 312.547 23.2524C313.83 22.2811 315.704 21.7608 318.202 21.7608H322.678V20.6855C322.678 19.7143 322.331 18.9165 321.637 18.3615C320.943 17.8065 319.972 17.4943 318.758 17.4943C317.647 17.4943 316.745 17.7371 316.051 18.2228C315.357 18.7084 314.941 19.3327 314.802 20.0958H311.124C311.298 18.3268 312.096 16.9393 313.483 15.9681C314.871 14.9969 316.676 14.4766 318.931 14.4766C321.29 14.4766 323.129 15.0316 324.448 16.1415C325.732 17.2515 326.391 18.8471 326.391 20.9283V27.9351C326.391 28.7676 326.773 29.1838 327.571 29.1838H328.299ZM322.678 24.5358H318.029C316.849 24.5358 315.982 24.7786 315.357 25.2295C314.733 25.6804 314.42 26.3395 314.42 27.2067C314.42 27.9698 314.698 28.5941 315.288 29.0451C315.878 29.5307 316.676 29.7388 317.717 29.7388C319.243 29.7388 320.458 29.3226 321.325 28.4901C322.193 27.6576 322.644 26.5476 322.678 25.1601V24.5358Z" fill="white"/>
<path d="M330.002 8.04749H333.749V32.6521H330.002V8.04749Z" fill="white"/>
</svg>
