<svg width="100%" height="100%" viewBox="0 0 2301.9 233.1" xmlns="http://www.w3.org/2000/svg">
  <!-- "Fermentation House" part with fixed colors -->
  <g>
    <polygon fill="#fefdfd" points="134.1 12.9 139.5 52 145 12.9 164.9 12.9 164.9 77.8 153.1 77.8 153.1 32.6 145.7 77.8 134.1 77.7 133.9 77.4 126 31.8 126 77.8 114.4 77.8 114.4 12.9 134.1 12.9"></polygon>
    <polygon fill="#fefdfd" points="215.4 12.9 221.3 42.9 221.3 12.9 233.9 12.9 233.9 77.8 221.4 77.8 214.7 46.2 214.7 77.8 202.1 77.8 202.1 12.9 215.4 12.9"></polygon>
    <polygon fill="#fefdfd" points="180.8 82.3 186.9 112.6 186.9 82.3 199.3 82.3 199.3 147.2 186.6 147.2 180.1 115.4 180.1 147.2 167.5 147.2 167.5 82.3 180.8 82.3"></polygon>
    <path fill="#fefdfd" d="M100.1,12.9c7.3.7,9.1,6.7,9.7,13,.4,4.5.6,12.9-3,16.2l-2.8,2c2.2.6,3.5,1.9,4.3,4s.7,2.2.7,2.3v27.4h-12.6v-25.1c-.3-3.7-1.2-4.6-5.1-4.4v29.6h-13.1V12.9h21.8ZM91.4,24.8v12.1h3.9c.3,0,1.2-1.1,1.3-1.4.9-1.9.9-6.6.4-8.6s-3.5-2-5.6-2.1Z"></path>
    <path fill="#fefdfd" d="M29.8,151.8v22.9s.4.4.4.4h5.7v-23.2h12.9v64.9h-12.9v-29.6h-6.1v29.6h-12.9v-64.9h12.9Z"></path>
    <path fill="#fefdfd" d="M68.9,151.1c9.8-.6,16.5,4.4,17.2,14.4.8,11.7-.7,24.4,0,36.1-.7,8.2-5.1,14.9-13.8,15.5-12.1.9-17.7-5.7-18.3-17.3-.5-9.8-.6-23,0-32.9.5-9.6,4.9-15.4,14.9-16ZM69.1,163.2c-1.4.3-2.1,2.4-2.2,3.6.6,11.1-.9,23.1,0,34.1s.5,3.8,2,4.3c2.6.8,3.8-.9,4.1-3.3,1.1-11.2-.8-24.2,0-35.6-.2-2.5-1.3-3.7-3.9-3.1Z"></path>
    <path fill="#fefdfd" d="M145.4,81.7c9.6-.3,16.1,4.7,16.7,14.4-.6,11.8.8,24.4,0,36.1s-5.1,14.9-13.5,15.5c-12.5,1-18-5.7-18.6-17.6-.5-9.7-.5-22.4,0-32.1s4.8-16.1,15.4-16.5ZM145.2,93.8c-1.4.3-2.1,2.4-2.2,3.6.6,11.1-.9,23.1,0,34.1.1,1.3.5,3.8,2,4.3,3.5,1.1,4.1-2.2,4.3-4.8.8-10.6-.6-22.1,0-32.8-.3-2.8-.6-5.1-4.1-4.4Z"></path>
    <path fill="#fefdfd" d="M103.3,151.8v49.6c0,.6.6,2.5,1,3,1,1.3,3.3,1.3,4.3,0s1-2.5,1-3v-49.6h12.6v49.9c-.6,8.6-4.6,14.9-13.8,15.5-11.2.7-17.2-4.6-17.8-15.8v-49.6h12.6Z"></path>
    <path fill="#fefdfd" d="M73.5,82.3l6.1,64.9h-12.4l-.8-10.4h-7.8l-.8,10.4h-12.6l6.1-64.9h22.2ZM65.4,126.3c-1-10.7-1.8-21.5-2.8-32.2l-.6-.9-2.4,33.1h5.8Z"></path>
    <path fill="#fefdfd" d="M157.4,170.2h-13.1v-4.9c0-.5-.9-1.8-1.5-2-3-.9-4.6.8-4.3,3.8.5,4.2,10,11.4,13.1,14.9,6.2,6.9,7.2,13.6,5.7,22.7s-9.6,14.3-19.9,12.2c-12.2-2.5-11.5-14.4-11.4-24.4h12.6v9c0,.2.4,1.7.5,2,1.1,3,5.3,2.8,5.8-1.3,1.6-13.9-17.8-18.2-18.9-32.3s5.7-20.4,18.5-18.5c10.5,1.5,12.9,9.4,12.8,18.9Z"></path>
    <polygon fill="#fefdfd" points="73 12.9 73 25.5 60.4 25.5 60.4 38.1 72.5 38.1 72.5 50.3 60.4 50.3 60.4 65.2 74 65.2 74 77.8 47 77.8 47 12.9 73 12.9"></polygon>
    <polygon fill="#fefdfd" points="196.8 12.9 196.8 25.5 184.1 25.5 184.1 38.1 196.2 38.1 196.2 50.3 184.1 50.3 184.1 65.2 197.5 65.2 197.5 77.8 170.7 77.8 170.7 12.9 196.8 12.9"></polygon>
    <path fill="#fefdfd" d="M188.2,151.8v12.4h-12.9v12.6h12s.4.4.4.4v12h-12.4v14.9h13.6v12.6h-26.8v-64.9h26Z"></path>
    <polygon fill="#fefdfd" points="42.9 12.9 42.9 25.5 30.1 25.5 30.1 35.9 42.2 35.9 42.2 48.2 30.1 48.2 30.1 77.8 16.9 77.8 16.9 12.9 42.9 12.9"></polygon>
    <polygon fill="#fefdfd" points="43.2 82.3 43.2 94.7 35.6 94.7 35.6 147.2 22.5 147.2 22.5 94.7 14.6 94.7 14.6 82.3 43.2 82.3"></polygon>
    <polygon fill="#fefdfd" points="109.9 82.3 109.9 94.7 102 94.7 102 147.2 89.2 147.2 89.2 94.7 81.3 94.7 81.3 82.3 109.9 82.3"></polygon>
    <rect fill="#fefdfd" x="112.9" y="82.3" width="12.6" height="64.9"></rect>
    <path fill="#d30000" d="M91.4,24.8c2.2,0,4.9-.6,5.6,2.1s.5,6.7-.4,8.6-1,1.4-1.3,1.4h-3.9v-12.1Z"></path>
    <path fill="#d30000" d="M69.2,163.3c1-.4,2.2-.3,2.9.5.7.7.7,1.8.7,2.9.1,10.5.3,21,.4,31.5,0,1.8.2,4-.7,5.6s-1.7,1.9-2.9,1.7c-1-.2-1.8-1-2.2-2-.5-1.3-.5-2.8-.6-4.1s-.2-3.1-.2-4.7c0-3.1,0-6.1.2-9.2.2-5.3.3-10.5.1-15.8,0-1.2-.1-2.3.1-3.5s.9-2.2,1.9-2.8.2,0,.3-.1Z"></path>
    <path fill="#d30000" d="M145.2,93.8c3.5-.8,3.8,1.6,4.1,4.4-.6,10.7.8,22.2,0,32.8s-.8,5.9-4.3,4.8c-1.5-.5-1.9-3-2-4.3-.9-11,.7-23,0-34.1.1-1.3.8-3.3,2.2-3.6Z"></path>
    <path fill="#d30000" d="M65.4,126.3h-5.8l2.4-33.1.6.9c.9,10.7,1.8,21.5,2.8,32.2Z"></path>
    <polygon fill="none" points="214.7 46.2 221.4 77.8 233.9 77.8 233.9 12.9 221.3 12.9 221.3 42.9 215.4 12.9 202.1 12.9 202.1 77.8 214.7 77.8 214.7 46.2"></polygon>
    <path fill="none" d="M145.4,81.7c-10.6.3-14.8,6.4-15.4,16.5-.5,9.7-.5,22.4,0,32.1.6,11.9,6.1,18.5,18.6,17.6,8.4-.7,13-7.6,13.5-15.5.8-11.7-.6-24.3,0-36.1-.7-9.8-7.2-14.7-16.7-14.4Z"></path>
    <path fill="none" d="M175.3,189.2h12.4v-12s-.4-.4-.4-.4h-12v-12.6h12.9v-12.4h-26v64.9h26.8v-12.6h-13.6v-14.9Z"></path>
    <polygon fill="none" points="197.5 65.2 184.1 65.2 184.1 50.3 196.2 50.3 196.2 38.1 184.1 38.1 184.1 25.5 196.8 25.5 196.8 12.9 170.7 12.9 170.7 77.8 197.5 77.8 197.5 65.2"></polygon>
    <polygon fill="none" points="180.1 115.4 186.6 147.2 199.3 147.2 199.3 82.3 186.9 82.3 186.9 112.6 180.8 82.3 167.5 82.3 167.5 147.2 180.1 147.2 180.1 115.4"></polygon>
    <path fill="none" d="M109.6,151.8v49.6c0,.6-.6,2.5-1,3-1,1.3-3.3,1.3-4.3,0-.4-.5-1-2.5-1-3v-49.6h-12.6v49.6c.7,11.2,6.6,16.5,17.8,15.8,9.2-.6,13.2-6.9,13.8-15.5v-49.9h-12.6Z"></path>
    <path fill="none" d="M86.1,165.5c-.7-10-7.5-15-17.2-14.4-10,.6-14.3,6.4-14.9,16-.6,9.8-.5,23,0,32.9.6,11.6,6.2,18.2,18.3,17.3,8.7-.7,13.1-7.4,13.8-15.5-.7-11.8.8-24.5,0-36.1Z"></path>
    <path fill="none" d="M138.4,167c-.3-2.9,1.3-4.7,4.3-3.8.6.2,1.5,1.5,1.5,2v4.9h13.1c0-9.5-2.3-17.4-12.8-18.9-12.8-1.9-19.5,6.1-18.5,18.5,1.2,14.1,20.5,18.4,18.9,32.3-.5,4.1-4.7,4.3-5.8,1.3-.1-.3-.5-1.9-.5-2v-9h-12.6c-.1,10-.9,21.9,11.4,24.4,10.3,2.1,18.1-1.4,19.9-12.2,1.5-9.1.4-15.8-5.7-22.7-3.1-3.5-12.6-10.7-13.1-14.9Z"></path>
    <path fill="none" d="M35.9,175h-5.7s-.4-.4-.4-.4v-22.9h-12.9v64.9h12.9v-29.6h6.1v29.6h12.9v-64.9h-12.9v23.2Z"></path>
    <polygon fill="none" points="126 31.8 133.9 77.4 134.1 77.7 145.7 77.8 153.1 32.6 153.1 77.8 164.9 77.8 164.9 12.9 145 12.9 139.5 52 134.1 12.9 114.4 12.9 114.4 77.8 126 77.8 126 31.8"></polygon>
    <polygon fill="none" points="102 147.2 102 94.7 109.9 94.7 109.9 82.3 81.3 82.3 81.3 94.7 89.2 94.7 89.2 147.2 102 147.2"></polygon>
    <polygon fill="none" points="30.1 48.2 42.2 48.2 42.2 35.9 30.1 35.9 30.1 25.5 42.9 25.5 42.9 12.9 16.9 12.9 16.9 77.8 30.1 77.8 30.1 48.2"></polygon>
    <polygon fill="none" points="58.6 136.9 66.4 136.9 67.2 147.2 79.6 147.2 73.5 82.3 51.3 82.3 45.2 147.2 57.8 147.2 58.6 136.9"></polygon>
    <polygon fill="none" points="22.5 147.2 35.6 147.2 35.6 94.7 43.2 94.7 43.2 82.3 14.6 82.3 14.6 94.7 22.5 94.7 22.5 147.2"></polygon>
    <path fill="none" d="M91.4,48.2c3.8-.2,4.8.7,5.1,4.4v25.1s12.6,0,12.6,0v-27.4c0-.1-.6-2-.7-2.3-.8-2.1-2.2-3.3-4.3-4l2.8-2c3.6-3.3,3.4-11.6,3-16.2-.6-6.3-2.4-12.3-9.7-13h-21.8v64.9h13.1v-29.6Z"></path>
    <rect fill="none" x="112.9" y="82.3" width="12.6" height="64.9"></rect>
    <polygon fill="none" points="74 65.2 60.4 65.2 60.4 50.3 72.5 50.3 72.5 38.1 60.4 38.1 60.4 25.5 73 25.5 73 12.9 47 12.9 47 77.8 74 77.8 74 65.2"></polygon>
    <path fill="#d30000" d="M244.2,233.1h8.3V0H0v233.1h244.2ZM48.7,216.7h-12.9v-29.6h-6.1v29.6h-12.9v-64.9h12.9v22.9s.4.4.4.4h5.7v-23.2h12.9v64.9ZM86.1,201.7c-.7,8.2-5.1,14.9-13.8,15.5-12.1.9-17.7-5.7-18.3-17.3-.5-9.8-.6-23,0-32.9.5-9.6,4.9-15.4,14.9-16,9.8-.6,16.5,4.4,17.2,14.4.8,11.7-.7,24.4,0,36.1ZM81.3,94.7v-12.4h28.5v12.4h-7.8v52.5h-12.9v-52.5h-7.8ZM108.5,217.2c-11.2.7-17.2-4.6-17.8-15.8v-49.6h12.6v49.6c0,.6.6,2.5,1,3,1,1.3,3.3,1.3,4.3,0,.4-.5,1-2.5,1-3v-49.6h12.6v49.9c-.6,8.6-4.6,14.9-13.8,15.5ZM157.3,204.6c-1.8,10.8-9.6,14.3-19.9,12.2-12.2-2.5-11.5-14.4-11.4-24.4h12.6v9c0,.2.4,1.7.5,2,1.1,3,5.3,2.8,5.8-1.3,1.6-13.9-17.8-18.2-18.9-32.3-1-12.4,5.7-20.4,18.5-18.5,10.5,1.5,12.9,9.4,12.8,18.9h-13.1v-4.9c0-.5-.9-1.8-1.5-2-3-.9-4.6.8-4.3,3.8.5,4.2,10,11.4,13.1,14.9,6.2,6.9,7.2,13.6,5.7,22.7ZM162.2,132.2c-.5,7.9-5.1,14.9-13.5,15.5-12.5,1-18-5.7-18.6-17.6-.5-9.7-.5-22.4,0-32.1.5-10,4.8-16.1,15.4-16.5,9.6-.3,16.1,4.7,16.7,14.4-.6,11.8.8,24.4,0,36.1ZM188.9,216.7h-26.8v-64.9h26v12.4h-12.9v12.6h12s.4.4.4.4v12h-12.4v14.9h13.6v12.6ZM202.1,12.9h13.4l5.8,30.1V12.9h12.6v64.9h-12.5l-6.7-31.6v31.6h-12.6V12.9ZM170.7,12.9h26v12.6h-12.6v12.6h12.1v12.1h-12.1v14.9h13.4v12.6h-26.8V12.9ZM167.5,82.3h13.4l6.1,30.3v-30.3h12.4v64.9h-12.6l-6.6-31.8v31.8h-12.6v-64.9ZM114.4,12.9h19.7l5.4,39.2,5.4-39.2h20v64.9h-11.9v-45.2l-7.3,45.2h-11.6c0-.1-.2-.4-.2-.4l-7.9-45.5v46h-11.6V12.9ZM112.9,82.3h12.6v64.9h-12.6v-64.9ZM78.3,12.9h21.8c7.3.7,9.1,6.7,9.7,13,.4,4.5.6,12.9-3,16.2l-2.8,2c2.2.6,3.5,1.9,4.3,4,.1.3.7,2.2.7,2.3v27.4h-12.6v-25.1c-.3-3.7-1.2-4.6-5.1-4.4v29.6h-13.1V12.9ZM47,12.9h26v12.6h-12.6v12.6h12.1v12.1h-12.1v14.9h13.6v12.6h-27V12.9ZM51.3,82.3h22.2l6.1,64.9h-12.4l-.8-10.4h-7.8l-.8,10.4h-12.6l6.1-64.9ZM16.9,12.9h26v12.6h-12.9v10.4h12.1v12.4h-12.1v29.6h-13.1V12.9ZM14.6,82.3h28.5v12.4h-7.6v52.5h-13.1v-52.5h-7.8v-12.4Z"></path>
  </g>

  <!-- "Jungle Tea" part with currentColor -->
  <g>
    <path fill="currentColor" d="M949.3,121.4c1.7,50.4,25.3,83.9,66.2,101.6,25.3,10.9,51.4,11.1,77.8,6.4,19-3.4,37-9.8,52.8-22.7,3.8-3,5.5-6.4,5.5-12v-57.9c0-8.6,3.5-14.2,10.6-17,2.7-1.1,8.1-1.5,8.1-3.5s-1.6-2.1-2.3-2.1h-71.5c-2.6,0-2.2,3.3.4,4,9.3,2.5,8.3,2.3,10.2,3.2,10.2,4.5,9.5,10.2,9.7,22.4.2,12.1.4,24.2-.2,36.2-.9,17.6-7,32.3-22.5,38.3-32.3,12.4-64.7,6.9-86.4-28.3-20.3-32.8-22.3-69.4-14-107,12.3-56.4,48.7-83.1,96.8-71.3,24.5,6,42,20.9,49.5,50.5,1.3,5.3.8,8.2,1.7,6.5,4.2-11.6,7.7-22.5,11.6-32.2,2.4-5.9,1.2-8.8-3.6-12-24.4-16.3-51-22.6-78.8-24.1-23.2-1.3-45.5,3.1-66,15.7-36.8,22.5-56.9,57.3-55.3,105.5h0Z"></path>
    <path fill="currentColor" d="M1592.4,172s-.1,0-.2,0c-.2,0-10.7,10.5-15.5,14.9-35.2,31.7-80,28.4-117.9,28.4s-12.9-8.3-12.9-18.4c0-24.3.2-80.5,0-80.3,17.4,0,34.4-.4,51.4-.2,17.9.8,36.1,3.6,43,20.7.3.8,1.2,3.3,1.4,4.3.4,1.7.8,3.1,1.4,3.1s.8,0,.8-.9v-65.6c0-1.1-1.3-1.1-1.7.2-6.3,22.2-21.2,26.9-44.6,27.8-19.8,0-48.5,0-51.6,0V16.4c23.1,0,45.7.4,67.8.4s44.9,11.1,58.7,34.9c1.2,2,2.2,3.1,3.9,2.7,1.8-.4.6-4.6.2-6.2-3.1-12.6-6.4-24.8-9.7-37.8-.7-2.7-3.8-3.5-5.8-3.5-53.8-.2-107.6,0-161.4,0s-6.7-.6-6.7,1.3.3.5,1.9.9c15.4,4.1,15,20.4,15.5,34.8,0,.5,0,89.7,0,134.4,0,18.1-2.7,33.8-20.3,43.8-.4.2-6,2.6-2.5,2.6h187.8c3.1,0,4.7-2.1,5.4-4.7,5.2-18.3,7.7-27.6,11.4-41.4.4-1.5,2-6.7.4-6.6Z"></path>
    <path fill="currentColor" d="M934.8,6.9h-58.3c-1,0-1,1.5.2,1.9,18.8,6.8,23.4,22.1,24.5,46.3,0,.4,0,106.3-.1,108.3-.6.4-85-103.6-124.8-150.4-3.9-4.7-7.9-6.4-13.5-6.4-12.8,0-27.3,0-39.3,0s-3.9-.3-4.6,1.1c-.4.7-.2,1.6.8,2.1.3.2.7.4,1.1.5,10.3,3.7,13.5,9.1,14.9,20.3.9,6.9.6,17.2.6,24.1.2,34.8.3,74.8.1,110.5-.4,22.3-2.1,47-19.3,55.7-.7.4-2.9,1.3-3.8,1.6-1.5.5-2.7.9-2.7,1.5s0,.8.8.8h58.3c1,0,1-1.5-.2-1.9-21.7-7.8-24.6-27.2-24.9-58.1V30.5s106.2,132.9,159.7,200c1.3,1.6,3.4,3.7,4.9,1.8.5-.7.8-.9.8-5.4V59.9c0.8-20.4,3.7-41.2,19.1-49,.7-.4,2.9-1.3,3.8-1.6,1.5-.5,2.7-.9,2.7-1.5s0-.9-.8-.9h0Z"></path>
    <path fill="currentColor" d="M699.9,6h-58.3c-1,0-1,1.5.2,1.9,23.4,8.5,25,30.3,25,65.8,0,0,.3,74.5-1.1,87.2-3.5,33.6-19.3,54.4-47.7,60.5-8,1.7-16.4,2.3-24.5,2.1-33.6-.9-61.9-21.6-60.9-69.7.7-35.6.2-76.5.1-112.4,0-13.1,1-26.7,8.3-31.5,1.7-1.1,3-1.6,4.1-1.8.2,0,.4,0,.6-.2.4,0,.7-.1.9-.2.1,0,.2-.1.3-.2.2-.1.3-.2.3-.4,0-.4,0-.6-.8-.6h-61.8c-.8,0-.8.3-.8.6s.1.3.3.4c0,0,.1.2.3.2.2,0,.5.1.9.2.2,0,.4,0,.6.2,1.1.3,2.5.8,4.1,1.8,5.8,3.9,7.5,9,8.1,16.6.1,20.5,0,97.3,0,133.9s13.6,53.3,40.1,63.5c26.2,10,53.1,10.4,80,5.3,29.6-5.6,48.5-25.2,54.3-59.1,1.3-7.6,2.1-15.6,2.1-23.3.3-24.3.2-73.1.2-73.1.3-24,.2-54,19.4-63.8.7-.4,2.9-1.3,3.8-1.6,1.5-.5,2.7-.9,2.7-1.5s0-.9-.8-.9h0Z"></path>
    <path fill="currentColor" d="M1377.1,169.4c-1.7,2.1-2.5,3-3.7,4.4-7.3,8.8-11.7,14-18.6,19.5-29.4,23.6-68.6,22.1-97,22.1s-14.6-7.1-16.2-16.5c-1.3-7.8-1.4-15.7-1.4-23.7V47.8c0-14.7-.1-32.2,8.3-37.8,1.7-1.1,3-1.6,4.1-1.8.2,0,.4,0,.6-.2.4,0,.7-.1.9-.2.1,0,.2-.1.3-.2.2-.1.3-.2.3-.4,0-.4,0-.6-.8-.6h-61.8c-.8,0-.8.3-.8.6s.1.3.3.4c0,0,.1.2.3.2.2,0,.5.1.9.2.2,0,.4,0,.6.2,1.1.3,2.5.8,4.1,1.8,8.5,5.6,8.3,13.8,8.3,28.5,0,0,.4,114.2-.3,141.9-.4,16.8-.5,36.4-18.9,42.2-.4.1-1.2.3-2,.8-1.6.9,0,1.6,1,1.6h180.3c4.5-18.3,8.9-36.5,13.4-54.6.1-1.1-.4-3.1-2.1-.9h0Z"></path>
    <path fill="currentColor" d="M467.1,6.5h-61.8c-.8,0-.9.3-.9.6s.1.3.3.4c0,0,.1.2.3.2.2,0,.5.1.9.2.2,0,.4,0,.6.2,1.1.3,2.5.8,4.1,1.8,8.5,5.6,8.3,13.8,8.3,28.5,0,0,1.2,138.1-2.5,160.2-2,12.2-17.2,27.2-33.6,27.2-57,0-69.3-57.8-76.1-80.4-2.6-8.8-2.8-9.5-3.3-7.5,0,25.9-.1,45.3-.1,67.5,3,5.2,32.5,27.1,66.6,27.1,52.3,0,83.3-26.4,83.4-76.7,0-32.9,0-108.1,0-108.1,0-14.7-.1-32.2,8.3-37.8,1.7-1.1,3-1.6,4.1-1.8.2,0,.4,0,.6-.2.4,0,.7-.1.9-.2.1,0,.2-.1.3-.2.2-.1.3-.2.3-.4,0-.4,0-.6-.8-.6h0Z"></path>
    <path fill="currentColor" d="M1813.4,225.1c-9.8-2.8-16-11.6-16-21.9s-1.3-151.1-1.1-169.5c.1-12.3,3.3-16.6,14-16.6,22.1,0,41.4,2.7,58.2,18.7,5.3,5.1,10.3,15.3,15.8,20.8,2,.6,1-2.4.9-3-3.5-13.7-6.8-27.6-10.6-41.1-.6-2.1-2.6-4.4-6-4.4-59.7,0-119.4-.1-179-.3-4.3,0-5.8,2-6.8,6.1-1.9,8.1-4,16.1-5.9,24.2-1.4,5.8-2.8,11.5-4.2,17.3-.4,1.6.2,1.9,1.6,1.1,3-3.2,5.3-7.2,7.8-11,11.8-17.3,36.4-31.5,63.6-28.6,13.1,1.3,16.1,4,16.1,19.1,0,38.7-.8,140.9-.8,157.3s-5.7,28.8-20.5,33.7c-.2,0-1.3,1.2.2,1.6h77.7c.6,0,1.2-1.3.2-2.1-1.7-.7-3.3-1-5-1.5h0Z"></path>
    <path fill="currentColor" d="M2106.7,167.2c-2.2,4.8-9.1,16.1-15.7,25-6.5,8.8-9.3,10.5-17.2,15.2-27.6,16.4-64.3,12.1-95.2,12.1s-21.1-8.3-21.3-26.7c-.3-22.2,0-72.3,0-75.9,20,0,48,.1,67.1.1,38.1,0,36.7,32.8,36.7,24.4v-57.4c0-6.8-4.1,12.3-13.8,18.7-9.3,6-22.9,5.1-32.4,5.1-16.3,0-55.5.1-57.5.1V17.5c23.1,0,46.2.5,68.6.5s45.7,10.9,60.2,34.4c.8,1.3,3.3,5.7,4.6,4.9,1.9-.9-.6-7.7-1.3-10.3-2.7-10.9-5.8-21.7-8.2-32.7-1.1-5-3-6.3-7.3-6.3-54,.1-108,0-162.1.2-2.3,0-7.1-.4-7.8.1-.7.4-.6,1.8,0,2,17.3,5.1,18.3,22.1,18.3,37.4,0,48.9-.5,92-.5,142.8s-5.2,28.5-18.6,35.2c-.4.2-2.6,2.2-.9,3,3.6,0,6.6-.3,9.6-.3,51.2,0,202.7.3,216,.3,1.4-1.6-3.3-2.8-4.2-3.3-16-8.1-20.5-15.3-14.9-34,6.4-21,16-39.5,23.8-60,1.3-3.4,4-3.4,5.9-3.4,20.8-.2,41.7,0,62.5,0s5.2,1.9,6,3.9c8.8,20.6,17.6,41.3,25.6,62.3,2.2,5.9,7.2,18.7,4.3,23.9-4.5,8.1-13.9,10.5-10.5,10.5h74.3c1.3,0,2.3-.6-1.2-3-13.3-8.8-21-23-27.9-38-27.7-59.4-86.3-183.8-88.5-187.8-2.1,4-51.7,115-76.2,167.1h-.2ZM2201.2,118.6h-63c10.2-23.3,20.3-46.3,31.1-70.9,11,24.4,21.2,47.2,31.8,70.9Z"></path>
  </g>
</svg>