<?xml version="1.0" encoding="UTF-8"?>
<svg width="1650px" height="256px" viewBox="0 0 1650 256" version="1.1" xmlns="http://www.w3.org/2000/svg" xmlns:xlink="http://www.w3.org/1999/xlink">
    <title>Group 43</title>
    <g id="Page-1" stroke="none" stroke-width="1" fill="none" fill-rule="evenodd">
        <g id="ParallelBio-Logo-1Color-WarmRed" transform="translate(0.61, -573.01)" fill="#EE4419" fill-rule="nonzero">
            <g id="Group-43" transform="translate(0, 573)">
                <path d="M581.09,56.86 L581.09,70.99 C568.29,60.4 551.88,54.03 534,54.03 C493.2,54.03 460.02,87.22 460.02,128.01 C460.02,168.8 493.21,201.99 534,201.99 C551.87,201.99 568.29,195.62 581.09,185.03 L581.09,199.16 L609.43,199.16 L609.43,56.86 L581.09,56.86 Z M534,173.65 C508.83,173.65 488.35,153.17 488.35,128 C488.35,102.83 508.83,82.36 534,82.36 C559.17,82.36 579.64,102.84 579.64,128 C579.64,153.17 559.16,173.65 534,173.65 L534,173.65 Z" id="Shape"></path>
                <path d="M371.04,54.03 C353.17,54.03 336.75,60.4 323.95,70.99 L323.95,56.86 L295.61,56.86 L295.61,256.01 L323.95,256.01 L323.95,185.03 C336.75,195.62 353.16,201.99 371.04,201.99 C411.84,201.99 445.02,168.8 445.02,128.01 C445.02,87.22 411.83,54.03 371.04,54.03 L371.04,54.03 Z M371.04,173.66 C345.87,173.66 325.4,153.18 325.4,128.01 C325.4,102.84 345.88,82.37 371.04,82.37 C396.2,82.37 416.69,102.85 416.69,128.01 C416.69,153.17 396.21,173.66 371.04,173.66 L371.04,173.66 Z" id="Shape"></path>
                <path d="M846.9,56.86 L846.9,70.99 C834.1,60.4 817.69,54.03 799.81,54.03 C759.02,54.03 725.83,87.22 725.83,128.01 C725.83,168.8 759.02,201.99 799.81,201.99 C817.68,201.99 834.1,195.62 846.9,185.03 L846.9,199.16 L875.24,199.16 L875.24,56.86 L846.9,56.86 Z M799.81,173.65 C774.64,173.65 754.17,153.17 754.17,128 C754.17,102.83 774.65,82.36 799.81,82.36 C824.97,82.36 845.45,102.84 845.45,128 C845.45,153.16 824.97,173.65 799.81,173.65 L799.81,173.65 Z" id="Shape"></path>
                <rect id="Rectangle" x="911.43" y="0.01" width="28.34" height="199.15"></rect>
                <rect id="Rectangle" x="975.6" y="0.01" width="28.34" height="199.15"></rect>
                <rect id="Rectangle" x="1207.57" y="0.01" width="28.34" height="199.15"></rect>
                <path d="M673.88,69.85 L673.88,56.86 L645.54,56.86 L645.54,199.16 L673.88,199.16 L673.88,128.01 C673.88,102.84 694.36,82.37 719.52,82.37 L719.52,54.03 C702.3,54.03 686.46,59.96 673.88,69.85 L673.88,69.85 Z" id="Path"></path>
                <path d="M1105.38,53.39 C1064.46,53.39 1031.16,86.68 1031.16,127.61 C1031.16,168.53 1064.45,201.83 1105.38,201.83 C1136.72,201.83 1163.56,182.3 1174.43,154.77 L1142.32,154.77 C1133.96,166.11 1120.53,173.49 1105.39,173.49 C1084.6,173.49 1067.01,159.59 1061.39,140.6 L1178.44,140.6 C1179.19,136.38 1179.6,132.04 1179.6,127.61 C1179.6,86.69 1146.31,53.39 1105.38,53.39 L1105.38,53.39 Z M1061.39,114.62 C1067.01,95.63 1084.6,81.73 1105.38,81.73 C1126.16,81.73 1143.76,95.63 1149.37,114.62 L1061.38,114.62 L1061.39,114.62 Z" id="Shape"></path>
                <path d="M1349.87,54.03 C1332,54.03 1315.59,60.4 1302.78,70.99 L1302.78,0.01 L1274.44,0.01 L1274.44,56.86 L1274.44,56.86 L1274.44,199.16 L1302.78,199.16 L1302.78,185.03 C1315.58,195.62 1331.99,201.99 1349.87,201.99 C1390.66,201.99 1423.85,168.8 1423.85,128.01 C1423.85,87.22 1390.66,54.03 1349.87,54.03 L1349.87,54.03 Z M1349.87,173.66 C1324.7,173.66 1304.22,153.18 1304.22,128.02 C1304.22,102.86 1324.7,82.37 1349.86,82.37 C1375.02,82.37 1395.51,102.85 1395.51,128.02 C1395.51,153.19 1375.03,173.66 1349.86,173.66 L1349.87,173.66 Z" id="Shape"></path>
                <path d="M1574.77,54.03 C1533.98,54.03 1500.79,87.22 1500.79,128.01 C1500.79,168.8 1533.98,201.99 1574.77,201.99 C1615.56,201.99 1648.75,168.8 1648.75,128.01 C1648.75,87.22 1615.56,54.03 1574.77,54.03 L1574.77,54.03 Z M1574.77,173.66 C1549.6,173.66 1529.13,153.18 1529.13,128.02 C1529.13,102.86 1549.61,82.38 1574.77,82.38 C1599.93,82.38 1620.41,102.86 1620.41,128.02 C1620.41,153.18 1599.93,173.66 1574.77,173.66 Z" id="Shape"></path>
                <rect id="Rectangle" x="1444.44" y="56.86" width="28.34" height="142.3"></rect>
                <rect id="Rectangle" transform="translate(1458.6315, 21.2825) rotate(-45) translate(-1458.6315, -21.2825)" x="1444.46148" y="7.11247714" width="28.34" height="28.34"></rect>
                <path d="M105.98,34.2 C92.6,32.59 79.69,33.83 67.75,37.36 C66.96,37.59 66.16,37.01 66.16,36.18 L66.16,1.98 C66.16,0.89 65.28,0 64.18,0 L40.55,0 C39.46,0 38.57,0.89 38.57,1.98 L38.57,50.5 C38.57,51.43 38.13,52.3 37.38,52.87 C34.7,54.89 32.11,57.03 29.66,59.31 C28.87,60.04 27.59,59.48 27.59,58.4 L27.59,1.98 C27.59,0.89 26.71,0 25.61,0 L1.98,0 C0.89,0 -1.42108547e-14,0.89 -1.42108547e-14,1.98 L-1.42108547e-14,253.88 C-1.42108547e-14,254.97 0.89,255.86 1.98,255.86 L25.61,255.86 C26.7,255.86 27.59,254.97 27.59,253.88 L27.59,128.96 C27.59,92.97 55.63,62.65 91.59,61.15 C131.54,59.48 164.25,93.11 161.06,133.35 C159.23,156.51 145.03,176.93 124.33,187.48 C105.28,197.19 84.81,196.73 67.31,188.9 C66.6,188.58 66.15,187.87 66.15,187.09 L66.15,178.14 C66.15,177.21 67.14,176.61 67.96,177.05 C78.92,183 92.03,185.45 105.88,182.63 C127.71,178.19 144.69,161.4 149.13,139.57 C156.68,102.4 127.04,69.78 90.67,72.18 C61.18,74.12 38.56,99.24 38.56,128.79 L38.56,253.88 C38.56,254.97 39.45,255.86 40.54,255.86 L64.17,255.86 C65.26,255.86 66.15,254.97 66.15,253.88 L66.15,219.62 C66.15,218.79 66.95,218.21 67.74,218.44 C76.36,220.99 85.34,222.35 94.44,222.35 C149.91,222.35 194.37,174.26 188.31,117.58 C183.67,74.17 149.31,39.39 105.97,34.18 L105.98,34.2 Z M94.45,99.65 C110.05,99.65 122.74,112.34 122.74,127.94 C122.74,143.54 110.05,156.23 94.45,156.23 C78.85,156.23 66.16,143.54 66.16,127.94 C66.16,112.34 78.85,99.65 94.45,99.65 Z" id="Shape"></path>
            </g>
        </g>
    </g>
</svg>