<svg width="60px" height="40px" viewBox="0 0 85 29" fill="none" xmlns="http://www.w3.org/2000/svg">
            <path d="M5.79834 11.9935C4.99341 11.7046 4.17086 11.4554 3.44694 10.9807C3.07354 10.7359 2.75825 10.4356 2.60942 10.0014C2.36195 9.28101 2.67899 8.50426 3.43373 8.04102C4.42978 7.42895 5.513 7.34353 6.63587 7.57515C7.27876 7.70813 7.87674 7.96088 8.45094 8.27616C8.89656 8.52099 9.23209 8.425 9.49365 7.99347C9.62311 7.77946 9.74993 7.56458 9.87587 7.34881C10.148 6.88294 10.0626 6.54299 9.59405 6.27351C8.33821 5.55224 6.99254 5.15505 5.79482 5.1665C4.31705 5.1665 3.1616 5.40957 2.09951 6.03308C-0.425384 7.51614 -0.840182 11.1842 1.7763 12.9402C2.56891 13.4721 3.43197 13.8473 4.31353 14.1917C5.30252 14.5783 6.29152 14.9666 7.15282 15.606C7.53768 15.8922 7.86265 16.2331 8.01764 16.7033C8.33557 17.6668 7.89611 18.7509 6.96083 19.2934C6.12331 19.7795 5.22062 19.8359 4.28799 19.6906C3.35447 19.5462 2.47556 19.237 1.62747 18.8293C1.15719 18.603 0.828696 18.7262 0.59884 19.1992C0.458813 19.4872 0.319667 19.776 0.186685 20.0675C-0.0643076 20.6215 0.0598674 20.9535 0.61117 21.215C1.76133 21.7619 2.95993 22.1574 4.2237 22.3361C5.58258 22.5281 6.89566 22.389 8.12949 21.7496C11.0815 20.2199 11.8186 16.5052 9.34746 14.0816C8.33645 13.0908 7.11407 12.4647 5.79922 11.9935H5.79834Z" fill="currentcolor"></path>
            <path d="M51.7219 1.68355C51.0826 1.68972 50.5823 2.19522 50.5788 2.83636C50.5753 3.48806 51.0843 3.9962 51.7387 3.99356C52.3789 3.99092 52.8809 3.48717 52.8818 2.84604C52.8818 2.18994 52.3701 1.67651 51.7228 1.68267L51.7219 1.68355Z" fill="currentcolor"></path>
            <path d="M71.7369 6.35474C71.7369 6.20591 71.7369 6.05796 71.7369 5.91088C71.7369 5.37191 71.4798 5.11563 70.9435 5.11211C70.6185 5.11035 70.2935 5.11211 69.9685 5.11211C69.3459 5.11211 69.1002 5.35694 69.0993 5.97605C69.0993 6.10199 69.0993 6.22881 69.0993 6.35562C69.0993 9.15177 69.0984 12.2738 69.1011 15.0391C69.1011 15.4195 69.0641 15.7929 68.9901 16.1646C68.5339 18.4482 65.9025 20.1355 62.9091 19.5393C60.7461 19.0682 59.315 17.2989 59.3141 15.0919C59.3141 13.9462 59.3141 12.9765 59.3141 11.8317C59.3141 10.1918 59.3141 8.04123 59.3141 6.3565C59.3141 6.21031 59.3141 6.065 59.3141 5.92145C59.3141 5.37367 59.0517 5.11563 58.5022 5.11387C58.2045 5.11299 57.9059 5.11387 57.6083 5.11387C56.931 5.11387 56.7038 5.34285 56.7038 6.02713C56.7038 6.13634 56.7038 6.24642 56.7038 6.35738C56.7038 7.78055 56.7038 9.66784 56.7038 11.0443C56.7038 12.4208 56.7021 13.9312 56.7047 15.3746C56.7056 15.8704 56.7496 16.3645 56.8579 16.8489C57.9456 21.7023 64.083 23.9691 68.2574 21.2602C70.1781 20.0131 71.5309 18.2016 71.7123 15.9083C71.7651 15.2363 71.7369 14.5565 71.7378 13.881C71.7396 11.5604 71.7396 8.71583 71.7378 6.35827L71.7369 6.35474Z" fill="currentcolor"></path>
            <path d="M83.9581 19.94C83.4183 19.9541 82.83 19.822 82.2232 19.7004C81.1646 19.4697 80.2654 18.9272 79.6225 18.1319C78.9797 17.3367 78.6388 16.345 78.638 15.2653C78.638 14.3389 78.638 12.0694 78.638 11.0064V10.7211C78.638 9.93638 78.638 9.14377 78.6327 8.43747C78.6556 8.12219 78.8652 7.87472 79.184 7.78841C79.2465 7.77168 79.309 7.76375 79.3733 7.76287C80.8123 7.7708 82.2514 7.76816 83.6904 7.76552C84.2056 7.76552 84.4302 7.53654 84.4328 7.02223C84.4346 6.73336 84.4337 6.22786 84.4328 5.93988C84.431 5.38857 84.2179 5.17633 83.6622 5.17633C82.2249 5.17633 80.7868 5.17105 79.3495 5.18073C79.0149 5.17281 78.7498 4.9588 78.66 4.62679C78.6432 4.5669 78.6362 4.50526 78.6344 4.44361C78.6415 3.20978 78.638 2.48235 78.6371 1.24852C78.6371 0.681368 78.3834 0.425092 77.8136 0.415404C77.4984 0.41012 77.1822 0.412762 76.8669 0.415404C76.387 0.418927 75.9995 0.809066 75.9995 1.28903C75.9995 4.35818 75.9995 7.54182 75.9995 10.8373H76.0012C76.0012 11.6123 76.0012 14.2711 76.003 15.3719C76.0039 15.91 76.0541 16.3935 76.1562 16.8488C76.4125 17.9919 76.9488 19.0197 77.7494 19.903C78.4944 20.7255 79.457 21.3913 80.5314 21.8299C81.5195 22.2332 82.6406 22.4323 83.656 22.4323C83.6719 22.4323 83.6869 22.4323 83.7018 22.4323C84.1078 22.4296 84.4354 22.1003 84.4354 21.6943V20.3953C84.4354 20.1364 84.2188 19.9338 83.9599 19.9408L83.9581 19.94Z" fill="currentcolor"></path>
            <path d="M23.2815 5.06616C18.4924 5.06616 14.6095 8.94906 14.6095 13.7382C14.6095 13.7514 14.6095 13.7637 14.6095 13.7769V28.0254C14.6095 28.4146 14.9248 28.7299 15.314 28.7299H16.4572C16.8464 28.7299 17.1617 28.4146 17.1617 28.0254V19.8826C18.7302 21.445 20.8931 22.4102 23.2815 22.4102C28.0706 22.4102 31.9535 18.5273 31.9535 13.7382C31.9535 8.94906 28.0706 5.06616 23.2815 5.06616ZM23.2868 19.6633C20.0054 19.6633 17.3449 17.0028 17.3449 13.7214C17.3449 10.44 20.0054 7.77952 23.2868 7.77952C26.5682 7.77952 29.2287 10.44 29.2287 13.7214C29.2287 17.0028 26.5682 19.6633 23.2868 19.6633Z" fill="currentcolor"></path>
            <path d="M51.7547 9.73636C51.7468 9.72051 51.738 9.70466 51.7292 9.6888C51.708 9.64917 51.6869 9.60954 51.6649 9.56991C51.6499 9.54261 51.6358 9.51531 51.6208 9.48889C50.9551 8.29558 50.2074 7.0961 50.0603 5.69759C50.0356 5.46421 49.834 5.30481 49.6244 5.36117C48.4724 5.66853 47.044 5.46069 45.8929 5.2687C45.3029 5.14188 44.6908 5.07495 44.0629 5.07495C39.2729 5.07495 35.39 8.95785 35.39 13.7478C35.39 18.5378 39.2729 22.4207 44.0629 22.4207C44.143 22.4207 44.2232 22.4198 44.3024 22.4172C44.6644 22.4172 45.0475 22.3793 45.4368 22.3115C49.5733 21.6528 52.7358 18.0693 52.7358 13.7478C52.7358 12.3009 52.3809 10.9367 51.7547 9.73724V9.73636ZM44.0576 19.666C40.7762 19.666 38.1157 17.0054 38.1157 13.7241C38.1157 10.4427 40.7762 7.78214 44.0576 7.78214C47.339 7.78214 49.9995 10.4427 49.9995 13.7241C49.9995 17.0054 47.339 19.666 44.0576 19.666Z" fill="currentcolor"></path>
          </svg>