<?xml version="1.0" encoding="UTF-8" standalone="no"?>
<!DOCTYPE svg PUBLIC "-//W3C//DTD SVG 1.1//EN" "http://www.w3.org/Graphics/SVG/1.1/DTD/svg11.dtd">
<svg width="100%" height="100%" viewBox="0 0 159 22" version="1.1" xmlns="http://www.w3.org/2000/svg" xmlns:xlink="http://www.w3.org/1999/xlink" xml:space="preserve" xmlns:serif="http://www.serif.com/" style="fill-rule:evenodd;clip-rule:evenodd;stroke-linejoin:round;stroke-miterlimit:2;">
    <path d="M2.478,17.436L1.334,16.769L0,14.839L0,13.457L0.334,11.837L2.096,10.074L4.455,9.479L6.17,9.479L7.766,10.003L8.386,10.408L8.386,8.597L8.124,7.882L7.123,7.239L5.956,6.953L4.026,6.953L3.002,7.287L2.263,7.763L1.81,8.216L0.453,6.81L1.12,6.191L2.263,5.453L3.788,5L6.242,5L7.957,5.429L9.72,6.62L10.363,8.24L10.363,15.458L11.292,16.792L9.696,17.936L8.552,16.221L8.005,16.84L5.813,17.936L4.097,17.936L2.478,17.436ZM5.384,15.982L7.171,15.316L8.148,14.291L8.386,13.553L8.386,12.671L7.885,12.147L7.147,11.766L5.956,11.432L4.669,11.432L3.097,11.861L2.168,12.79L1.977,13.624L1.977,14.267L2.716,15.316L3.264,15.649L4.383,15.982L5.384,15.982Z" style="fill:rgb(250,250,250);fill-rule:nonzero;"/>
    <path d="M17,5.19L18.977,5.19L18.977,6.429L19.573,5.905L21.145,5L23.337,5L25.267,5.572L26.172,6.81L27.22,5.905L28.888,5L31.08,5L33.009,5.572L34.462,7.525L34.462,17.745L32.485,17.745L32.485,8.287L31.89,7.358L30.675,6.953L29.15,6.953L27.482,8.049L26.72,9.169L26.72,17.745L24.743,17.745L24.743,8.383L24.147,7.406L22.932,6.953L21.407,6.953L19.692,8.049L18.977,9.074L18.977,17.745L17,17.745L17,5.19Z" style="fill:rgb(250,250,250);fill-rule:nonzero;"/>
    <path d="M43.644,17.629L42.977,17.201L42.977,17.963L41,17.963L41,0L42.977,0L42.977,6.67L43.502,6.123L44.955,5.217L47.337,5.217L49.815,6.361L51.435,8.552L51.935,10.244L51.935,13.079L51.435,14.818L49.815,17.01L47.432,18.154L45.074,18.154L43.644,17.629ZM47.123,16.224L48.528,15.461L49.672,13.937L49.958,12.817L49.958,10.506L49.672,9.434L48.528,7.886L47.027,7.171L45.217,7.171L43.668,8.267L42.977,9.291L42.977,14.699L43.478,15.318L44.383,15.914L45.36,16.224L47.123,16.224Z" style="fill:rgb(250,250,250);fill-rule:nonzero;"/>
    <path d="M58.12,16.792L56.501,14.601L56,12.909L56,10.074L56.501,8.335L58.12,6.144L60.503,5L63.1,5L65.506,6.144L67.102,8.335L67.65,9.931L67.65,12.433L57.977,12.433L57.977,12.671L58.287,13.719L59.431,15.268L60.884,15.982L62.813,15.982L64.41,15.577L65.649,14.791L66.697,16.364L65.148,17.388L62.98,17.936L60.527,17.936L58.12,16.792ZM65.673,10.479L65.673,10.17L65.363,9.264L64.219,7.716L62.766,6.953L60.812,6.953L59.383,7.692L58.263,9.217L57.977,10.265L57.977,10.479L65.673,10.479Z" style="fill:rgb(250,250,250);fill-rule:nonzero;"/>
    <path d="M73,5.19L74.977,5.19L74.977,6.644L75.882,5.762L77.502,5L80.004,5L82.22,5.762L81.624,7.62L79.718,6.953L77.884,6.953L76.478,7.573L75.501,8.669L74.977,9.812L74.977,17.745L73,17.745L73,5.19Z" style="fill:rgb(250,250,250);fill-rule:nonzero;"/>
    <path d="M89.12,16.792L87.501,14.601L87,12.909L87,10.074L87.501,8.335L89.12,6.144L91.527,5L94.195,5L96.005,5.595L97.673,7.168L96.268,8.478L95.029,7.287L93.957,6.953L91.908,6.953L90.383,7.692L89.287,9.193L88.978,10.336L88.978,12.624L89.263,13.719L90.431,15.268L91.908,15.982L93.957,15.982L95.029,15.601L96.268,14.458L97.649,15.816L96.005,17.34L94.195,17.936L91.527,17.936L89.12,16.792Z" style="fill:rgb(250,250,250);fill-rule:nonzero;"/>
    <path d="M107.194,15.887L102,5L104.239,5L108.266,13.6L112.244,5L114.436,5L106.789,21.414L104.621,21.414L107.194,15.887Z" style="fill:rgb(250,250,250);fill-rule:nonzero;"/>
    <path d="M119.12,16.792L117.5,14.601L117,12.909L117,10.074L117.5,8.335L119.12,6.144L121.526,5L124.195,5L126.005,5.595L127.673,7.168L126.268,8.478L125.028,7.287L123.957,6.953L121.908,6.953L120.383,7.692L119.287,9.193L118.978,10.336L118.978,12.624L119.263,13.719L120.431,15.268L121.908,15.982L123.957,15.982L125.028,15.601L126.268,14.458L127.649,15.816L126.005,17.34L124.195,17.936L121.526,17.936L119.12,16.792Z" style="fill:rgb(250,250,250);fill-rule:nonzero;"/>
    <path d="M133,16.009L136.907,16.009L136.907,1.953L133.238,1.953L133.238,0L138.885,0L138.885,16.009L142.792,16.009L142.792,17.963L133,17.963L133,16.009Z" style="fill:rgb(250,250,250);fill-rule:nonzero;"/>
    <path d="M149.12,16.792L147.5,14.601L147,12.909L147,10.074L147.5,8.335L149.12,6.144L151.503,5L154.099,5L156.506,6.144L158.102,8.335L158.65,9.931L158.65,12.433L148.978,12.433L148.978,12.671L149.287,13.719L150.431,15.268L151.884,15.982L153.814,15.982L155.41,15.577L156.649,14.791L157.697,16.364L156.148,17.388L153.98,17.936L151.526,17.936L149.12,16.792ZM156.672,10.479L156.672,10.17L156.362,9.264L155.219,7.716L153.766,6.953L151.812,6.953L150.383,7.692L149.263,9.217L148.978,10.265L148.978,10.479L156.672,10.479Z" style="fill:rgb(250,250,250);fill-rule:nonzero;"/>
</svg>
