<?xml version="1.0" encoding="UTF-8" standalone="no"?>
<!DOCTYPE svg PUBLIC "-//W3C//DTD SVG 1.1//EN" "http://www.w3.org/Graphics/SVG/1.1/DTD/svg11.dtd">
<svg width="100%" height="100%" viewBox="0 0 334 40" version="1.1" xmlns="http://www.w3.org/2000/svg" xmlns:xlink="http://www.w3.org/1999/xlink" xml:space="preserve" xmlns:serif="http://www.serif.com/" style="fill-rule:evenodd;clip-rule:evenodd;stroke-linejoin:round;stroke-miterlimit:2;">
    <g>
        <path d="M20.56,21.032C37.306,18.806 38.448,9.367 39.982,0L39.982,23.416C39.982,32.581 32.546,40.008 23.379,40L0,39.98L0,39.945C0,32.045 0,23.764 20.56,21.032Z" style="fill:rgb(41,41,41);fill-opacity:0.5;fill-rule:nonzero;"/>
        <path d="M10.007,4.68C12.898,4.68 15.242,7.023 15.242,9.914C15.242,12.804 12.898,15.148 10.007,15.148C7.116,15.148 4.772,12.804 4.772,9.914C4.772,7.023 7.116,4.68 10.007,4.68Z" style="fill:rgb(41,41,41);fill-rule:nonzero;"/>
        <path d="M21.022,20.577C18.795,37.306 9.377,38.448 0,39.981L23.405,39.98C32.579,39.98 40.011,32.536 39.994,23.365L39.988,19.997L39.988,0C32.069,0 23.761,0.006 21.022,20.577Z" style="fill:rgb(41,41,41);fill-rule:nonzero;"/>
    </g>
    <g>
        <path d="M56.048,8.047L56.048,22.13C56.048,24.42 56.499,26.154 57.401,27.299C58.303,28.443 59.691,28.998 61.6,28.998C63.508,28.998 64.931,28.443 65.833,27.299C66.735,26.154 67.221,24.42 67.221,22.13L67.221,8.047L71.211,8.047L71.211,21.922C71.211,25.391 70.378,28.027 68.747,29.831C67.117,31.635 64.722,32.536 61.6,32.536C58.477,32.536 56.083,31.635 54.487,29.831C52.856,28.027 52.058,25.391 52.058,21.922L52.058,8.047L56.048,8.047Z" style="fill:rgb(41,41,41);fill-rule:nonzero;"/>
        <path d="M87.861,16.303C89.179,17.621 89.873,19.702 89.873,22.547L89.873,32.544L86.091,32.544L86.091,22.755C86.091,21.09 85.709,19.806 85.015,18.905C84.287,18.037 83.246,17.587 81.858,17.587C80.366,17.587 79.186,18.107 78.354,19.147C77.521,20.188 77.104,21.576 77.104,23.379L77.104,32.544L73.357,32.544L73.357,14.569L76.619,14.569L77.035,16.893C78.354,15.228 80.262,14.361 82.725,14.361C84.807,14.361 86.542,15.02 87.861,16.303Z" style="fill:rgb(41,41,41);fill-rule:nonzero;"/>
        <path d="M109.504,8.047L109.504,32.544L106.242,32.544L105.791,29.657C104.368,31.6 102.425,32.536 99.997,32.536C98.366,32.536 96.908,32.19 95.659,31.461C94.376,30.733 93.369,29.692 92.675,28.305C91.947,26.917 91.6,25.322 91.6,23.449C91.6,21.645 91.947,20.084 92.675,18.696C93.404,17.309 94.41,16.268 95.694,15.505C96.943,14.742 98.4,14.361 99.997,14.361C101.28,14.361 102.425,14.603 103.397,15.089C104.368,15.575 105.132,16.199 105.756,17.031L105.756,8.047L109.504,8.047ZM104.368,27.75C105.305,26.674 105.791,25.252 105.791,23.518C105.791,21.749 105.305,20.327 104.368,19.217C103.397,18.107 102.148,17.552 100.621,17.552C99.06,17.552 97.811,18.107 96.874,19.217C95.902,20.327 95.451,21.714 95.451,23.449C95.451,25.218 95.902,26.64 96.874,27.75C97.811,28.86 99.06,29.38 100.621,29.38C102.148,29.38 103.397,28.86 104.368,27.75Z" style="fill:rgb(41,41,41);fill-rule:nonzero;"/>
        <path d="M112.235,18.697C112.963,17.309 113.97,16.268 115.288,15.505C116.607,14.742 118.099,14.361 119.799,14.361C121.499,14.361 122.991,14.708 124.309,15.401C125.628,16.095 126.634,17.101 127.397,18.35C128.161,19.633 128.542,21.125 128.577,22.824C128.577,23.31 128.542,23.761 128.473,24.246L115.08,24.246L115.08,24.455C115.149,26.015 115.635,27.23 116.537,28.131C117.405,29.033 118.584,29.484 120.042,29.484C121.187,29.484 122.158,29.241 122.956,28.686C123.72,28.131 124.24,27.368 124.518,26.362L128.265,26.362C127.918,28.166 127.05,29.658 125.628,30.802C124.205,31.982 122.436,32.537 120.319,32.537C118.446,32.537 116.849,32.19 115.462,31.427C114.074,30.664 113.033,29.623 112.269,28.235C111.506,26.883 111.159,25.287 111.159,23.483C111.159,21.68 111.506,20.084 112.235,18.697ZM124.76,21.506C124.587,20.223 124.066,19.217 123.199,18.488C122.332,17.76 121.256,17.378 119.937,17.378C118.688,17.378 117.647,17.76 116.745,18.523C115.843,19.286 115.357,20.257 115.219,21.506L124.76,21.506Z" style="fill:rgb(41,41,41);fill-rule:nonzero;"/>
        <path d="M132.484,17.725L129.396,17.725L129.396,14.43L132.484,14.43L132.484,9.901L136.266,9.901L136.266,14.43L140.534,14.43L140.534,17.725L136.266,17.725L136.266,27.418C136.266,28.112 136.405,28.632 136.682,28.909C136.96,29.187 137.411,29.326 138.105,29.326L140.95,29.326L140.95,32.621L137.341,32.621C135.641,32.621 134.392,32.239 133.629,31.442C132.865,30.679 132.484,29.464 132.484,27.799L132.484,17.725Z" style="fill:rgb(41,41,41);fill-rule:nonzero;"/>
        <path d="M142.736,18.697C143.465,17.309 144.471,16.268 145.79,15.505C147.108,14.742 148.6,14.361 150.301,14.361C152.001,14.361 153.493,14.708 154.811,15.401C156.13,16.095 157.136,17.101 157.899,18.35C158.663,19.633 159.044,21.125 159.079,22.824C159.079,23.31 159.044,23.761 158.975,24.246L145.582,24.246L145.582,24.455C145.651,26.015 146.137,27.23 147.039,28.131C147.906,29.033 149.086,29.484 150.543,29.484C151.688,29.484 152.66,29.241 153.458,28.686C154.221,28.131 154.742,27.368 155.019,26.362L158.767,26.362C158.42,28.166 157.552,29.658 156.13,30.802C154.707,31.982 152.938,32.537 150.821,32.537C148.947,32.537 147.351,32.19 145.963,31.427C144.575,30.664 143.534,29.623 142.771,28.235C142.008,26.883 141.661,25.287 141.661,23.483C141.661,21.68 142.008,20.084 142.736,18.697ZM155.262,21.506C155.089,20.223 154.568,19.217 153.701,18.488C152.833,17.76 151.758,17.378 150.439,17.378C149.19,17.378 148.149,17.76 147.247,18.523C146.345,19.286 145.859,20.257 145.72,21.506L155.262,21.506Z" style="fill:rgb(41,41,41);fill-rule:nonzero;"/>
        <path d="M170.672,14.391L170.672,17.895L169.006,17.895C167.445,17.895 166.335,18.415 165.641,19.421C164.947,20.427 164.6,21.71 164.6,23.236L164.6,32.583L160.853,32.583L160.853,14.391L164.184,14.391L164.6,17.062C165.086,16.23 165.745,15.605 166.578,15.12C167.376,14.634 168.451,14.391 169.839,14.391L170.672,14.391Z" style="fill:rgb(41,41,41);fill-rule:nonzero;"/>
        <path d="M182.494,14.391L182.494,17.895L180.829,17.895C179.267,17.895 178.157,18.415 177.463,19.421C176.769,20.427 176.422,21.71 176.422,23.236L176.422,32.583L172.675,32.583L172.675,14.391L176.006,14.391L176.422,17.062C176.908,16.23 177.567,15.605 178.4,15.12C179.198,14.634 180.274,14.391 181.662,14.391L182.494,14.391Z" style="fill:rgb(41,41,41);fill-rule:nonzero;"/>
        <path d="M183.805,18.697C184.534,17.309 185.54,16.268 186.859,15.505C188.177,14.742 189.669,14.361 191.369,14.361C193.069,14.361 194.561,14.708 195.88,15.401C197.198,16.095 198.205,17.101 198.968,18.35C199.731,19.633 200.113,21.125 200.148,22.824C200.148,23.31 200.113,23.761 200.044,24.246L186.65,24.246L186.65,24.455C186.72,26.015 187.206,27.23 188.108,28.131C188.975,29.033 190.155,29.484 191.612,29.484C192.757,29.484 193.729,29.241 194.527,28.686C195.29,28.131 195.811,27.368 196.088,26.362L199.835,26.362C199.488,28.166 198.621,29.658 197.198,30.802C195.776,31.982 194.006,32.537 191.89,32.537C190.016,32.537 188.42,32.19 187.032,31.427C185.644,30.664 184.603,29.623 183.84,28.235C183.077,26.883 182.73,25.287 182.73,23.483C182.73,21.68 183.077,20.084 183.805,18.697ZM196.331,21.506C196.157,20.223 195.637,19.217 194.77,18.488C193.902,17.76 192.827,17.378 191.508,17.378C190.259,17.378 189.218,17.76 188.316,18.523C187.414,19.286 186.928,20.257 186.789,21.506L196.331,21.506Z" style="fill:rgb(41,41,41);fill-rule:nonzero;"/>
        <path d="M219.491,8.047L219.491,32.536L216.229,32.536L215.778,29.657C214.355,31.6 212.412,32.536 209.984,32.536C208.353,32.536 206.895,32.19 205.646,31.461C204.363,30.733 203.356,29.692 202.662,28.305C201.934,26.917 201.587,25.322 201.587,23.449C201.587,21.645 201.934,20.084 202.662,18.696C203.391,17.309 204.397,16.268 205.681,15.505C206.93,14.742 208.387,14.361 209.984,14.361C211.267,14.361 212.412,14.603 213.384,15.089C214.355,15.575 215.119,16.199 215.743,17.031L215.743,8.047L219.491,8.047ZM214.355,27.75C215.292,26.674 215.778,25.252 215.778,23.518C215.778,21.749 215.292,20.327 214.355,19.217C213.384,18.107 212.135,17.552 210.608,17.552C209.047,17.552 207.798,18.107 206.861,19.217C205.889,20.327 205.438,21.714 205.438,23.449C205.438,25.218 205.889,26.64 206.861,27.75C207.798,28.86 209.047,29.38 210.608,29.38C212.135,29.38 213.384,28.86 214.355,27.75Z" style="fill:rgb(41,41,41);fill-rule:nonzero;"/>
        <path d="M230.778,13.929C231.746,12.063 233.093,10.647 234.855,9.611C236.617,8.575 238.691,8.057 241.04,8.057C242.837,8.057 244.495,8.402 245.946,9.093C247.398,9.784 248.607,10.785 249.54,12.063C250.438,13.341 251.026,14.827 251.302,16.485L247.329,16.485C246.914,14.965 246.154,13.756 245.048,12.858C243.908,11.994 242.526,11.545 240.867,11.545C239.347,11.545 238.034,11.925 236.928,12.685C235.788,13.445 234.924,14.481 234.337,15.794C233.715,17.106 233.439,18.626 233.439,20.353C233.439,22.08 233.715,23.6 234.337,24.913C234.924,26.26 235.788,27.296 236.928,28.056C238.034,28.816 239.347,29.161 240.867,29.161C242.526,29.161 243.908,28.747 245.014,27.849C246.119,26.985 246.879,25.776 247.294,24.222L251.267,24.222C250.991,25.949 250.404,27.434 249.505,28.678C248.607,29.956 247.432,30.923 245.981,31.614C244.53,32.304 242.871,32.65 241.04,32.65C238.691,32.65 236.617,32.166 234.855,31.13C233.093,30.128 231.746,28.712 230.778,26.847C229.811,24.982 229.362,22.84 229.362,20.353C229.362,17.935 229.811,15.794 230.778,13.929Z" style="fill:rgb(41,41,41);fill-rule:nonzero;"/>
        <path d="M270.164,29.184L270.164,32.66L268.186,32.66C267.006,32.66 266.174,32.417 265.688,31.932C265.167,31.446 264.924,30.537 264.924,29.6C263.571,31.647 261.628,32.653 259.061,32.653C257.048,32.653 255.452,32.202 254.272,31.265C253.058,30.363 252.468,29.08 252.468,27.45C252.468,25.646 253.093,24.224 254.411,23.252C255.695,22.281 257.569,21.761 260.067,21.761L264.543,21.761L264.543,20.686C264.543,19.714 264.196,18.917 263.502,18.362C262.808,17.807 261.836,17.494 260.622,17.494C259.512,17.494 258.61,17.737 257.916,18.223C257.222,18.708 256.805,19.333 256.666,20.096L252.989,20.096C253.162,18.327 253.96,16.939 255.348,15.968C256.736,14.997 258.54,14.477 260.795,14.477C263.155,14.477 264.994,15.032 266.312,16.142C267.596,17.252 268.255,18.847 268.255,20.928L268.255,27.935C268.255,28.768 268.637,29.184 269.435,29.184L270.164,29.184ZM264.543,24.536L259.893,24.536C258.714,24.536 257.846,24.779 257.222,25.23C256.597,25.68 256.285,26.34 256.285,27.207C256.285,27.97 256.562,28.594 257.152,29.045C257.742,29.531 258.54,29.739 259.581,29.739C261.108,29.739 262.322,29.323 263.19,28.49C264.057,27.658 264.508,26.548 264.543,25.16L264.543,24.536Z" style="fill:rgb(41,41,41);fill-rule:nonzero;"/>
        <path d="M285.791,15.595C287.04,16.324 288.046,17.364 288.775,18.752C289.468,20.139 289.85,21.735 289.85,23.573C289.85,25.377 289.468,26.973 288.775,28.36C288.046,29.747 287.04,30.788 285.791,31.551C284.507,32.314 283.049,32.661 281.453,32.661C280.135,32.661 278.99,32.418 278.018,31.933C277.047,31.447 276.249,30.788 275.694,29.956L275.694,39.606L271.946,39.606L271.946,14.477L275.208,14.477L275.659,17.33C277.081,15.457 279.025,14.485 281.453,14.485C283.049,14.485 284.507,14.867 285.791,15.595ZM284.576,27.84C285.548,26.73 286.033,25.308 286.033,23.573C286.033,21.839 285.548,20.417 284.576,19.307C283.605,18.232 282.355,17.677 280.829,17.677C279.267,17.677 278.018,18.232 277.081,19.307C276.11,20.382 275.659,21.77 275.659,23.504C275.659,25.308 276.11,26.73 277.081,27.84C278.018,28.95 279.267,29.505 280.829,29.505C282.355,29.505 283.605,28.95 284.576,27.84Z" style="fill:rgb(41,41,41);fill-rule:nonzero;"/>
        <path d="M295.306,8.763C295.723,9.179 295.965,9.734 295.965,10.359C295.965,11.018 295.723,11.573 295.306,11.989C294.855,12.405 294.3,12.613 293.675,12.613C293.016,12.613 292.461,12.405 292.045,11.989C291.594,11.573 291.385,11.018 291.385,10.359C291.385,9.734 291.594,9.179 292.045,8.763C292.461,8.347 293.016,8.104 293.675,8.104C294.3,8.104 294.855,8.347 295.306,8.763ZM291.802,14.451L295.549,14.451L295.549,32.974L291.802,32.974L291.802,14.451Z" style="fill:rgb(41,41,41);fill-rule:nonzero;"/>
        <path d="M300.865,17.739L297.777,17.739L297.777,14.444L300.865,14.444L300.865,10.023L304.647,10.023L304.647,14.444L308.914,14.444L308.914,17.739L304.647,17.739L304.647,27.54C304.647,28.234 304.785,28.754 305.063,29.031C305.341,29.309 305.792,29.448 306.486,29.448L309.331,29.448L309.331,32.743L305.722,32.743C304.022,32.743 302.773,32.361 302.01,31.564C301.246,30.8 300.865,29.586 300.865,27.921L300.865,17.739Z" style="fill:rgb(41,41,41);fill-rule:nonzero;"/>
        <path d="M328.299,29.184L328.299,32.66L326.322,32.66C325.142,32.66 324.309,32.417 323.823,31.932C323.303,31.446 323.06,30.537 323.06,29.6C321.707,31.647 319.764,32.653 317.196,32.653C315.184,32.653 313.588,32.202 312.408,31.265C311.193,30.363 310.604,29.08 310.604,27.45C310.604,25.646 311.228,24.224 312.547,23.252C313.83,22.281 315.704,21.761 318.202,21.761L322.678,21.761L322.678,20.686C322.678,19.714 322.331,18.917 321.637,18.362C320.943,17.807 319.972,17.494 318.758,17.494C317.647,17.494 316.745,17.737 316.051,18.223C315.357,18.708 314.941,19.333 314.802,20.096L311.124,20.096C311.298,18.327 312.096,16.939 313.483,15.968C314.871,14.997 316.676,14.477 318.931,14.477C321.29,14.477 323.129,15.032 324.448,16.142C325.732,17.252 326.391,18.847 326.391,20.928L326.391,27.935C326.391,28.768 326.773,29.184 327.571,29.184L328.299,29.184ZM322.678,24.536L318.029,24.536C316.849,24.536 315.982,24.779 315.357,25.23C314.733,25.68 314.42,26.34 314.42,27.207C314.42,27.97 314.698,28.594 315.288,29.045C315.878,29.531 316.676,29.739 317.717,29.739C319.243,29.739 320.458,29.323 321.325,28.49C322.193,27.658 322.644,26.548 322.678,25.16L322.678,24.536Z" style="fill:rgb(41,41,41);fill-rule:nonzero;"/>
        <rect x="330.002" y="8.047" width="3.747" height="24.605" style="fill:rgb(41,41,41);fill-rule:nonzero;"/>
    </g>
</svg>
