<svg fill="none" height="44" viewBox="0 0 120 44" width="120" xmlns="http://www.w3.org/2000/svg"><g fill="currentColor"><path d="m54.2835 28.5438v-4.904c0-2.923.029-4.7119.0569-6.2154h-5.2289v.5115c2.2697 0 2.2987 1.7315 2.2987 4.5411v6.0679c0 2.8636-.5156 3.5681-2.2267 3.5681s-2.2267-.7045-2.2267-3.5681v-6.0457c0-3.7464-1.8389-5.3931-4.3384-5.3931-2.0978 0-3.5629 1.3337-4.5683 2.555l-.058-2.2367h-5.115v.5115c2.2696 0 2.2986 1.7315 2.2986 4.5411v6.0679c0 2.8509-.7315 3.565-2.1977 3.565s-2.1976-.7141-2.1976-3.565v-4.904c0-2.9231.029-4.7119.0569-6.2154h-5.2289v.5114c2.2696 0 2.2986 1.7316 2.2986 4.5411v6.0679c0 2.8499-.5854 3.565-2.5166 3.565-1.9313 0-2.8637-.4806-2.8637-3.6223v-12.2907c0-3.1522.4597-3.3475 2.4147-3.6329v-.5103h-6.0066l-6.0055 14.5602-6.03337-14.5602h-6.89593v.5103c2.52851.3693 2.8443.3979 2.8443 3.6329v12.2897c0 3.1788-.31579 3.3209-2.8443 3.6329v.5114h7.01087v-.5114c-2.52851-.312-2.84431-.4541-2.84431-3.6329v-14.1348l7.52754 17.512h.5456l7.1269-17.0854v13.7082c0 3.1788-.3158 3.3209-2.8443 3.6329v.5114h23.8264v-.5114c-2.2696-.2271-2.2986-.6812-2.2986-3.5767v-8.1167c.6606-.9369 1.9538-1.3337 3.1322-1.3337 2.0397 0 2.9023 1.2488 2.9023 3.9735v5.478c0 2.8955-.029 3.3496-2.2987 3.5766v.5114h14.7973v-.5114c-2.2697-.227-2.2987-.6811-2.2987-3.5766z"></path><path d="m64.8002 30.5311c-3.7927 0-5.5167-3.2074-5.5167-6.5846 0-4.2005 2.5285-5.6764 4.5973-5.6764.5456 0 .8335.1136 1.0634.5677l.9194 1.8737c.3158.6525.8335.7947 1.3792.7947 1.0054 0 1.6381-.6525 1.6381-1.5332 0-1.4758-1.781-2.8668-4.1956-2.8668h-.029c-4.2235 0-7.9883 3.1215-7.9883 8.2313 0 4.087 2.0977 7.6637 6.5511 7.6637 3.2761 0 5.086-2.1857 6.0624-3.8313l-.3158-.2844c-1.1493 1.0218-2.7014 1.6467-4.1665 1.6467z"></path><path d="m95.7934 30.5311c-3.7928 0-5.5167-3.2074-5.5167-6.5846 0-4.2005 2.5285-5.6764 4.5972-5.6764.5457 0 .8336.1136 1.0634.5677l.9195 1.8737c.3158.6525.8335.7947 1.3792.7947 1.0054 0 1.638-.6525 1.638-1.5332 0-1.4758-1.7809-2.8668-4.1955-2.8668h-.029c-4.2235 0-7.9884 3.1215-7.9884 8.2313 0 4.087 2.0978 7.6637 6.5512 7.6637 3.2761 0 5.086-2.1857 6.0627-3.8313l-.3161-.2844c-1.1493 1.0218-2.7015 1.6467-4.1666 1.6467z"></path><path d="m88.3043 18.8664c0-1.0504-.8046-1.7878-2.0688-1.7878-1.8099 0-3.1032 1.5332-4.1666 2.8955l-.0569-2.5485h-5.115v.5114c2.2696 0 2.2986 1.7315 2.2986 4.5411v6.0679c0 2.8636-.493 3.5682-2.2267 3.5682-1.7336 0-2.2266-.7046-2.2266-3.5682v-4.904c0-2.9231.029-4.7119.0569-6.2154h-5.2289v.5114c2.2697 0 2.2987 1.7316 2.2987 4.5411v6.0679c0 2.8955-.029 3.3496-2.2987 3.5767v.5114h15.9187v-.539c-3.3331-.1422-3.477-.3692-3.477-3.548v-7.7485c.7755-1.0218 1.724-1.6467 2.2696-1.6467.2009 0 .3158.0573.5178.2557l.9484.8233c.3448.312.5457.3693.9195.3693 1.0054 0 1.638-.7385 1.638-1.7316z"></path><path d="m104.541 28.5438v-10.2737c0-2.9231.029-4.712.057-6.2154h-5.2289v.5103c2.2699 0 2.2989 1.7316 2.2989 4.5411v11.4377c0 2.8955-.029 3.3496-2.2989 3.5767v.5114h7.4709v-.5114c-2.27-.2271-2.299-.6812-2.299-3.5767z"></path><path d="m119.684 28.6298c-1.005.9931-2.528 1.9013-4.626 1.9013-3.707 0-5.632-3.0652-5.632-7.1522v-.1135h10.315c-.374-4.2006-2.931-6.1592-5.832-6.1592-3.879 0-7.069 3.548-7.069 8.0042 0 4.4563 2.184 7.8908 6.867 7.8908 3.333 0 5.373-2.3555 6.292-4.087l-.316-.2833zm-6.465-10.5018c1.839 0 3.017 1.4196 3.045 4.0307h-6.781c.374-2.8668 2.011-4.0307 3.736-4.0307z"></path><path d="m29.186 15.0021c1.1188 0 2.0258-.8959 2.0258-2.001 0-1.1052-.907-2.0011-2.0258-2.0011-1.1189 0-2.0258.8959-2.0258 2.0011 0 1.1051.9069 2.001 2.0258 2.001z"></path><path d="m52.6899 15.0021c1.1188 0 2.0258-.8959 2.0258-2.001 0-1.1052-.907-2.0011-2.0258-2.0011-1.1189 0-2.0258.8959-2.0258 2.0011 0 1.1051.9069 2.001 2.0258 2.001z"></path><path d="m73.1469 15.0021c1.1188 0 2.0258-.8959 2.0258-2.001 0-1.1052-.907-2.0011-2.0258-2.0011s-2.0258.8959-2.0258 2.0011c0 1.1051.907 2.001 2.0258 2.001z"></path></g></svg>