<?xml version="1.0" encoding="UTF-8" standalone="no"?>
<!DOCTYPE svg PUBLIC "-//W3C//DTD SVG 1.1//EN" "http://www.w3.org/Graphics/SVG/1.1/DTD/svg11.dtd">
<svg width="100%" height="100%" viewBox="0 0 60 40" version="1.1" xmlns="http://www.w3.org/2000/svg" xmlns:xlink="http://www.w3.org/1999/xlink" xml:space="preserve" xmlns:serif="http://www.serif.com/" style="fill-rule:evenodd;clip-rule:evenodd;stroke-linejoin:round;stroke-miterlimit:2;">
    <g>
        <g transform="matrix(0.705882,0,0,0.705882,0,9.76471)">
            <path d="M5.798,11.993C4.993,11.705 4.171,11.455 3.447,10.981C3.074,10.736 2.758,10.436 2.609,10.001C2.362,9.281 2.679,8.504 3.434,8.041C4.43,7.429 5.513,7.344 6.636,7.575C7.279,7.708 7.877,7.961 8.451,8.276C8.897,8.521 9.232,8.425 9.494,7.993C9.623,7.779 9.75,7.565 9.876,7.349C10.148,6.883 10.063,6.543 9.594,6.274C8.338,5.552 6.993,5.155 5.795,5.167C4.317,5.167 3.162,5.41 2.1,6.033C-0.425,7.516 -0.84,11.184 1.776,12.94C2.569,13.472 3.432,13.847 4.314,14.192C5.303,14.578 6.292,14.967 7.153,15.606C7.538,15.892 7.863,16.233 8.018,16.703C8.336,17.667 7.896,18.751 6.961,19.293C6.123,19.78 5.221,19.836 4.288,19.691C3.354,19.546 2.476,19.237 1.627,18.829C1.157,18.603 0.829,18.726 0.599,19.199C0.459,19.487 0.32,19.776 0.187,20.068C-0.064,20.622 0.06,20.953 0.611,21.215C1.761,21.762 2.96,22.157 4.224,22.336C5.583,22.528 6.896,22.389 8.129,21.75C11.082,20.22 11.819,16.505 9.347,14.082C8.336,13.091 7.114,12.465 5.799,11.993L5.798,11.993Z" style="fill:white;fill-rule:nonzero;"/>
        </g>
        <g transform="matrix(0.705882,0,0,0.705882,0,9.76471)">
            <path d="M51.722,1.684C51.083,1.69 50.582,2.195 50.579,2.836C50.575,3.488 51.084,3.996 51.739,3.994C52.379,3.991 52.881,3.487 52.882,2.846C52.882,2.19 52.37,1.677 51.723,1.683L51.722,1.684Z" style="fill:white;fill-rule:nonzero;"/>
        </g>
        <g transform="matrix(0.705882,0,0,0.705882,0,9.76471)">
            <path d="M71.737,6.355L71.737,5.911C71.737,5.372 71.48,5.116 70.944,5.112C70.619,5.11 70.294,5.112 69.969,5.112C69.346,5.112 69.1,5.357 69.099,5.976L69.099,6.356C69.099,9.152 69.098,12.274 69.101,15.039C69.101,15.419 69.064,15.793 68.99,16.165C68.534,18.448 65.903,20.136 62.909,19.539C60.746,19.068 59.315,17.299 59.314,15.092L59.314,5.921C59.314,5.374 59.052,5.116 58.502,5.114C58.205,5.113 57.906,5.114 57.608,5.114C56.931,5.114 56.704,5.343 56.704,6.027L56.704,11.044C56.704,12.421 56.702,13.931 56.705,15.375C56.706,15.87 56.75,16.365 56.858,16.849C57.946,21.702 64.083,23.969 68.257,21.26C70.178,20.013 71.531,18.202 71.712,15.908C71.765,15.236 71.737,14.557 71.738,13.881C71.74,11.56 71.74,8.716 71.738,6.358L71.737,6.355Z" style="fill:white;fill-rule:nonzero;"/>
        </g>
        <g transform="matrix(0.705882,0,0,0.705882,0,9.76471)">
            <path d="M83.958,19.94C83.418,19.954 82.83,19.822 82.223,19.7C81.165,19.47 80.265,18.927 79.623,18.132C78.98,17.337 78.639,16.345 78.638,15.265L78.638,10.721C78.638,9.936 78.638,9.144 78.633,8.437C78.656,8.122 78.865,7.875 79.184,7.788C79.247,7.772 79.309,7.764 79.373,7.763C80.812,7.771 82.251,7.768 83.69,7.766C84.206,7.766 84.43,7.537 84.433,7.022C84.435,6.733 84.434,6.228 84.433,5.94C84.431,5.389 84.218,5.176 83.662,5.176C82.225,5.176 80.787,5.171 79.35,5.181C79.015,5.173 78.75,4.959 78.66,4.627C78.643,4.567 78.636,4.505 78.634,4.444C78.641,3.21 78.638,2.482 78.637,1.249C78.637,0.681 78.383,0.425 77.814,0.415C77.498,0.41 77.182,0.413 76.867,0.415C76.387,0.419 76,0.809 76,1.289L76,10.837L76.001,10.837C76.001,11.612 76.001,14.271 76.003,15.372C76.004,15.91 76.054,16.394 76.156,16.849C76.413,17.992 76.949,19.02 77.749,19.903C78.494,20.726 79.457,21.391 80.531,21.83C81.519,22.233 82.641,22.432 83.656,22.432L83.702,22.432C84.108,22.43 84.435,22.1 84.435,21.694L84.435,20.395C84.435,20.136 84.219,19.934 83.96,19.941L83.958,19.94Z" style="fill:white;fill-rule:nonzero;"/>
        </g>
        <g transform="matrix(0.705882,0,0,0.705882,0,9.76471)">
            <path d="M23.282,5.066C18.492,5.066 14.61,8.949 14.61,13.738L14.61,28.025C14.61,28.415 14.925,28.73 15.314,28.73L16.457,28.73C16.846,28.73 17.162,28.415 17.162,28.025L17.162,19.883C18.73,21.445 20.893,22.41 23.282,22.41C28.071,22.41 31.953,18.527 31.953,13.738C31.953,8.949 28.071,5.066 23.282,5.066ZM23.287,19.663C20.005,19.663 17.345,17.003 17.345,13.721C17.345,10.44 20.005,7.78 23.287,7.78C26.568,7.78 29.229,10.44 29.229,13.721C29.229,17.003 26.568,19.663 23.287,19.663Z" style="fill:white;fill-rule:nonzero;"/>
        </g>
        <g transform="matrix(0.705882,0,0,0.705882,0,9.76471)">
            <path d="M51.755,9.736C51.747,9.721 51.738,9.705 51.729,9.689C51.708,9.649 51.687,9.61 51.665,9.57C51.65,9.543 51.636,9.515 51.621,9.489C50.955,8.296 50.207,7.096 50.06,5.698C50.036,5.464 49.834,5.305 49.624,5.361C48.472,5.669 47.044,5.461 45.893,5.269C45.303,5.142 44.691,5.075 44.063,5.075C39.273,5.075 35.39,8.958 35.39,13.748C35.39,18.538 39.273,22.421 44.063,22.421C44.143,22.421 44.223,22.42 44.302,22.417C44.664,22.417 45.048,22.379 45.437,22.312C49.573,21.653 52.736,18.069 52.736,13.748C52.736,12.301 52.381,10.937 51.755,9.737L51.755,9.736ZM44.058,19.666C40.776,19.666 38.116,17.005 38.116,13.724C38.116,10.443 40.776,7.782 44.058,7.782C47.339,7.782 50,10.443 50,13.724C50,17.005 47.339,19.666 44.058,19.666Z" style="fill:white;fill-rule:nonzero;"/>
        </g>
    </g>
</svg>
