<svg xmlns="http://www.w3.org/2000/svg" width="169" height="40" fill-rule="evenodd"><path d="M75.37 16.784c-2.322 0-4.315.802-5.612 2.257l-.15.168-.14-.175c-1.184-1.472-2.892-2.25-4.938-2.25-2.132 0-3.993.67-5.24 1.885l-.187.18-.116-.233c-.582-1.164-1.83-1.833-3.423-1.833-.662 0-1.344.112-1.873.306-.193.065-.256.164-.256.394v2.225c0 .097.035.13.046.14.055.047.172.068.317.052l.9-.096c1.013 0 1.525.458 1.525 1.367v10.87c0 .182.105.287.285.287h2.926c.183 0 .286-.105.286-.287V23.8c0-2.433 1.597-4.068 3.974-4.068 2.243 0 3.75 1.724 3.75 4.3v8a.26.26 0 0 0 .288.287h2.924a.26.26 0 0 0 .287-.287V23.8c0-2.433 1.443-4.068 3.6-4.068 2.454 0 4.1 1.724 4.1 4.3v8a.26.26 0 0 0 .289.287h2.923c.183 0 .287-.105.287-.287V23.8c0-4.202-2.72-7.026-6.77-7.026m29.035 12.707c-.056-.04-.146-.05-.26-.026l-.003.001c-.527.097-.822.13-1.212.13-.766 0-1.302-.563-1.302-1.368V17.473a.26.26 0 0 0-.287-.286H98.43c-.182 0-.287.105-.287.286v8.118c0 2.394-1.777 4.067-4.323 4.067-2.453 0-4.1-1.724-4.1-4.3v-7.895a.26.26 0 0 0-.287-.286h-2.924c-.183 0-.287.105-.287.286v8.118c0 4.202 2.72 7.025 6.77 7.025 2.174 0 4.023-.6 5.345-1.734l.168-.145.118.188c.675 1.075 2.053 1.7 3.78 1.7.652 0 1.3-.114 2.105-.373.2-.064.272-.173.25-.37l-.254-2.194c-.01-.1-.038-.154-.084-.2m10.476.326c-2.763 0-4.77-2.15-4.77-5.117s2.006-5.117 4.77-5.117c2.73 0 4.64 2.104 4.64 5.117s-1.9 5.117-4.64 5.117m10.916-.325c-.054-.04-.148-.05-.262-.028l-.003.001a5.91 5.91 0 0 1-1.2.13c-.768 0-1.303-.562-1.303-1.367v-18.1c0-.18-.108-.288-.286-.288H119.8c-.18 0-.288.107-.288.287v8.2l-.3-.2c-1.267-.885-2.727-1.333-4.34-1.333-4.85 0-8.235 3.255-8.235 7.916s3.386 7.916 8.235 7.916c2.023 0 3.602-.594 5.12-1.923l.185-.165.1.225c.578 1.184 1.86 1.863 3.516 1.863.65 0 1.3-.114 2.104-.373.2-.066.272-.173.25-.37l-.254-2.194c-.01-.092-.037-.154-.084-.188m6.694-12.284h-2.925c-.18 0-.286.104-.286.286v14.522a.26.26 0 0 0 .286.287h2.925c.183 0 .286-.105.286-.287V17.494c0-.182-.103-.286-.286-.286m14.013 12.097a11.55 11.55 0 0 1-2.553.29c-1.75 0-2.924-1.226-2.924-3.05V19.9h5.595c.182 0 .286-.105.286-.286v-2.13c0-.182-.104-.286-.286-.286h-5.595v-4.353c0-.183-.104-.286-.287-.286h-2.924a.26.26 0 0 0-.287.286V26.67c0 3.556 2.403 5.946 5.977 5.946.926 0 2.292-.198 3.48-.503.2-.064.262-.17.24-.367l-.38-2.214c-.044-.195-.155-.267-.344-.228m11.053.513c-2.763 0-4.768-2.15-4.768-5.117s2.005-5.117 4.768-5.117c2.732 0 4.64 2.104 4.64 5.117s-1.9 5.117-4.64 5.117m10.916-.326c-.055-.04-.147-.05-.26-.027-.53.1-.826.13-1.216.13-.766 0-1.302-.562-1.302-1.367V17.473a.26.26 0 0 0-.287-.286h-2.924c-.182 0-.287.105-.287.286v.9l-.302-.217c-1.253-.904-2.724-1.363-4.37-1.363-4.85 0-8.235 3.255-8.235 7.916s3.386 7.916 8.234 7.916c1.998 0 3.625-.6 5.12-1.923l.187-.165.1.225c.577 1.184 1.858 1.863 3.516 1.863.65 0 1.3-.114 2.104-.373.2-.066.272-.173.25-.37l-.256-2.196c-.01-.1-.037-.152-.083-.187m-37.4-19.538a1.935 1.935 0 0 0-1.932 1.932c0 1.065.867 1.932 1.932 1.932a1.935 1.935 0 0 0 1.932-1.932 1.935 1.935 0 0 0-1.932-1.932M41 17.034c.188 0 .328-.18.278-.36A21.255 21.255 0 0 0 20.705 1 21.255 21.255 0 0 0 .139 16.675a.287.287 0 0 0 .278.361h2.235a.284.284 0 0 0 .27-.2A18.542 18.542 0 0 1 20.706 3.72a18.543 18.543 0 0 1 17.783 13.117c.037.118.146.2.27.2h2.236zm-12.683 19.69c-1.898 0-3.705-.505-5.307-1.455a17.43 17.43 0 0 0 4.891-9.362 10.276 10.276 0 0 1 4.701-1.142c2.22 0 4.38.73 6.152 2.05-.292 5.513-4.855 9.9-10.437 9.9m-25.56-9.908A10.311 10.311 0 0 1 8.9 24.766c1.604 0 3.185.377 4.6 1.093a17.44 17.44 0 0 0 4.931 9.44 10.33 10.33 0 0 1-5.256 1.426c-5.583 0-10.145-4.396-10.437-9.908m17.957-14.83a14.746 14.746 0 0 1 4.735 10.86 14.75 14.75 0 0 1-4.735 10.859 14.755 14.755 0 0 1-4.733-10.86 14.75 14.75 0 0 1 4.733-10.858M41.217 25.45a1.328 1.328 0 0 0-.345-.431 13.033 13.033 0 0 0-8.28-2.973 12.99 12.99 0 0 0-4.433.784c-.005-5.356-2.413-10.35-6.605-13.7a1.362 1.362 0 0 0-1.698 0 17.476 17.476 0 0 0-6.604 13.67 13.016 13.016 0 0 0-4.353-.754A13.033 13.033 0 0 0 .62 25.02a1.345 1.345 0 0 0-.346.43 1.345 1.345 0 0 0-.273.81c0 7.27 5.914 13.184 13.184 13.184a13 13 0 0 0 7.561-2.4 13.013 13.013 0 0 0 7.562 2.4c7.27 0 13.184-5.914 13.184-13.184a1.34 1.34 0 0 0-.274-.81"/></svg>