<svg class="logo__image" aria-hidden="true" id="Layer_1" x="0px" y="0px" viewBox="0 0 119.78 79" xml:space="preserve">
<path d="M111.09,78.86H-0.08V-0.07h111.17V78.86z M2.92,75.86h105.17V2.93H2.92V75.86z"></path>
<path d="M16.47,35.38V11.52H30.5v1.86H18.36v8.84h11.91v1.86H18.36v9.45H30.5v1.86L16.47,35.38L16.47,35.38z"></path>
<path d="M85.53,11.52c6.21,0,10.32,5.36,10.32,12.34c0,6.97-4.11,12.34-10.32,12.34c-6.24,0-10.31-5.36-10.31-12.34
	C75.22,16.88,79.29,11.52,85.53,11.52z M85.53,13.37c-5.16,0-8.4,4.4-8.4,10.48c0,6.01,3.25,10.48,8.4,10.48
	c5.1,0,8.41-4.47,8.41-10.48C93.94,17.77,90.63,13.37,85.53,13.37z"></path>
<path d="M16.47,67.41V43.55h1.89v22h10.71v1.86H16.47z"></path>
<path d="M45.59,42.69h1.94v14.66c0,4.83,2.38,7.76,6.77,7.76c4.43,0,6.78-2.93,6.78-7.76V42.69h1.94V57.4c0,5.9-2.95,9.59-8.72,9.59
	c-5.74,0-8.71-3.72-8.71-9.59V42.69z"></path>
<path d="M93.09,66.89l-7.72-10.77l-7.7,10.77h-2.39l8.92-12.23l-8.42-11.63h2.42l7.17,10.12l7.2-10.12h2.39l-8.39,11.59l8.89,12.27
	L93.09,66.89L93.09,66.89z"></path>
<path d="M62.04,35.38l-7.72-10.77l-7.7,10.77h-2.39l8.92-12.23l-8.42-11.63h2.42l7.17,10.12l7.2-10.12h2.39l-8.39,11.59l8.89,12.27
	L62.04,35.38L62.04,35.38z"></path>
<path d="M30.42,65.55h-1.37v1.86h1.37V65.55z"></path>
<path d="M111.17,78.93H0V0h111.17V78.93z M3,75.93h105.17V3H3V75.93z"></path>
<path d="M16.47,35.38V11.52H30.5v1.86H18.36v8.84h11.91v1.86H18.36v9.45H30.5v1.86L16.47,35.38L16.47,35.38z"></path>
<path d="M85.53,11.52c6.21,0,10.32,5.36,10.32,12.34c0,6.97-4.11,12.34-10.32,12.34c-6.24,0-10.31-5.36-10.31-12.34
	S79.29,11.52,85.53,11.52z M85.53,13.37c-5.16,0-8.4,4.4-8.4,10.48c0,6.01,3.25,10.48,8.4,10.48c5.1,0,8.41-4.47,8.41-10.48
	C93.94,17.77,90.63,13.37,85.53,13.37z"></path>
<path d="M16.47,67.41V43.55h1.89v22h10.71v1.86H16.47z"></path>
<path d="M45.59,42.69h1.94v14.66c0,4.83,2.38,7.76,6.77,7.76c4.43,0,6.78-2.93,6.78-7.76V42.69h1.94V57.4c0,5.9-2.95,9.59-8.72,9.59
	c-5.74,0-8.71-3.72-8.71-9.59C45.59,57.4,45.59,42.69,45.59,42.69z"></path>
<path d="M93.09,66.89l-7.72-10.77l-7.7,10.77h-2.39l8.92-12.23l-8.42-11.63h2.42l7.17,10.12l7.2-10.12h2.39l-8.39,11.59l8.89,12.27
	H93.09L93.09,66.89z"></path>
<path d="M62.04,35.38l-7.72-10.77l-7.7,10.77h-2.39l8.92-12.23l-8.42-11.63h2.42l7.17,10.12l7.2-10.12h2.39l-8.39,11.59l8.89,12.27
	H62.04L62.04,35.38z"></path>
<path d="M30.42,65.55h-1.37v1.86h1.37V65.55z"></path>
<g>
	<path d="M112.43,76.13v-0.56h2.86v0.56h-1.1v2.8h-0.67v-2.8H112.43z M116.82,75.57l0.86,2.41l0.86-2.41h0.96v3.36h-0.62v-2.71
		l-0.93,2.71h-0.54l-0.94-2.71v2.71h-0.62v-3.36H116.82z"></path>
</g>
</svg>